<?xml version="1.0" encoding="utf-8"?>
<svg viewBox="0 0 100 100" width="100px" height="100px" xmlns="http://www.w3.org/2000/svg" xmlns:bx="https://boxy-svg.com">
<rect x="110" width="100" height="100" style="fill: rgb(53, 21, 66);" y="0"/>
<rect x="135" width="10" height="10" style="fill: rgb(142, 193, 165);"/>
<rect width="25" height="25" style="fill: rgb(175, 70, 216);" x="110"/>
<rect y="25" width="25" height="25" style="fill: rgb(144, 58, 178);" x="110"/>
<rect x="135" y="10" width="10" height="10" style="fill: rgb(116, 158, 135);"/>
<rect y="50" width="25" height="25" style="fill: rgb(89, 36, 110);" x="110"/>
<rect x="145" width="10" height="10" style="fill: rgb(223, 255, 235);"/>
<rect y="110" width="100" height="100" style="fill: rgb(89, 36, 110);"/>
<rect width="100" height="100" style="fill: rgb(89, 36, 110);" x="-110"/>
<ellipse style="fill-opacity: 0.2;" cx="-59" cy="89" rx="22" ry="6"/>
<path d="M -84 94 L -79 87 C -76 84 -73 68 -74 59 C -88 -6 -32 -4 -45 58 C -47 69 -41 87 -39 88 L -34 94 L -44 90 C -43 86 -53 64 -51 64 C -53 64 -53 88 -50 89 L -48 95 L -56 89 C -54 89 -58 68 -60 68 C -61 68 -64 88 -62 89 L -69 94 L -68 89 C -65 89 -67 64 -68 64 C -67 64 -75 86 -74 89 L -84 94 Z" style="fill: rgb(142, 193, 165);"/>
<circle style="fill: rgb(223, 255, 235);" cy="26" r="8" cx="-60"/>
<path d="M -54 26 C -54 29 -57 32 -60 32 C -63 32 -66 29 -66 26 C -66 23 -63 20 -60 20 C -59 20 -58 20 -57 21 C -56 21 -60 25 -60 26 C -59 26 -55 23 -55 23 C -54 24 -54 25 -54 26 Z" style=""/>
<path d="M -71 43 L -68 53 L -67 46 L -65 51 L -62 45 L -60 52 L -57 45 L -54 52 L -53 44 L -50 52 L -48 42 C -48 38 -71 39 -71 43 Z" style="fill: rgb(223, 255, 235);"/>
<rect y="75" width="25" height="25" style="fill: rgb(73, 29, 91);" x="110"/>
<rect width="100" height="100" style="fill: rgb(89, 36, 110);" x="220"/>
<circle style="fill: rgb(73, 29, 91);" cx="263" cy="29" r="22"/>
<circle style="fill: rgb(73, 29, 91);" cy="74" r="9" cx="246"/>
<circle style="fill: rgb(73, 29, 91);" cx="281" cy="81" r="13"/>
<circle style="fill: rgb(73, 29, 91);" cx="302" cy="25" r="6"/>
<rect y="110" width="100" height="100" style="fill: rgb(89, 36, 110);" x="220"/>
<circle style="fill: rgb(73, 29, 91);" cx="241" cy="138" r="12"/>
<circle style="fill: rgb(73, 29, 91);" cx="289" cy="180" r="13"/>
<circle style="fill: rgb(73, 29, 91);" cy="177" r="9" cx="254"/>
<circle style="fill: rgb(73, 29, 91);" cx="263" cy="153" r="6"/>
<rect y="220" width="100" height="100" style="fill: rgb(89, 36, 110);" x="220"/>
<circle style="fill: rgb(73, 29, 91);" cx="247" cy="249" r="9"/>
<circle style="fill: rgb(73, 29, 91);" cx="292" cy="260" r="13"/>
<circle style="fill: rgb(73, 29, 91);" cy="287" r="16" cx="254"/>
<circle style="fill: rgb(73, 29, 91);" cx="281" cy="297" r="6"/>
<rect y="330" width="100" height="100" style="fill: rgb(89, 36, 110);" x="220"/>
<path d="M 245 340 C 263 352 289 353 316 377 C 297 365 272 358 245 340 Z" style="fill: rgb(73, 29, 91);"/>
<path d="M 234 349 C 254 368 273 369 306 399 C 283 383 259 380 234 349 Z" style="fill: rgb(73, 29, 91);"/>
<path d="M 225 353 C 240 377 257 384 283 420 C 264 399 242 389 225 353 Z" style="fill: rgb(73, 29, 91);"/>
<rect y="440" width="100" height="100" style="fill: rgb(89, 36, 110);" x="220"/>
<path d="M 228 510 C 243 489 242 465 273 447 C 259 467 255 494 228 510 Z" style="fill: rgb(73, 29, 91);"/>
<path d="M 234 523 C 256 503 259 482 298 461 C 277 481 269 504 234 523 Z" style="fill: rgb(73, 29, 91);"/>
<path d="M 238 532 C 263 517 272 499 314 488 C 290 502 276 522 238 532 Z" style="fill: rgb(73, 29, 91);"/>
<rect width="100" height="100" style="fill: rgb(89, 36, 110);" x="-110" y="110"/>
<ellipse style="fill-opacity: 0.2;" cx="-59" cy="199" rx="28" ry="6"/>
<path d="M -84 204 L -79 197 C -76 194 -73 178 -74 169 C -95 104 -36 105 -45 168 C -47 179 -36 193 -34 194 L -29 200 L -39 196 C -38 192 -52 178 -50 178 C -52 178 -55 198 -52 199 L -50 205 L -58 199 C -56 199 -56 176 -58 176 C -59 176 -64 198 -62 199 L -69 204 L -68 199 C -65 199 -67 174 -68 174 C -67 174 -75 196 -74 199 L -84 204 Z" style="fill: rgb(142, 193, 165);"/>
<circle style="fill: rgb(223, 255, 235);" cy="136" r="8" cx="-61"/>
<path d="M -55 136 C -55 139 -58 142 -61 142 C -64 142 -67 139 -67 136 C -67 133 -64 130 -61 130 C -60 130 -59 130 -58 131 C -57 131 -61 135 -61 136 C -60 136 -56 133 -56 133 C -55 134 -55 135 -55 136 Z" style=""/>
<path d="M -71 153 L -68 163 L -67 156 L -65 161 L -62 155 L -60 162 L -57 155 L -54 162 L -53 154 L -50 162 L -48 152 C -48 148 -71 149 -71 153 Z" style="fill: rgb(223, 255, 235);"/>
<rect y="220" width="100" height="100" style="fill: rgb(89, 36, 110);"/>
<ellipse style="fill-opacity: 0.2;" cx="49" cy="313" rx="23" ry="3"/>
<ellipse style="fill: rgb(223, 255, 235);" cx="49" cy="296" rx="10" ry="15"/>
<path style="fill: rgb(175, 70, 216);" d="M 48 314 C 29 313 34 294 19 291 C 32 285 52 300 48 314 Z"/>
<rect y="330" width="100" height="100" style="fill: rgb(89, 36, 110);"/>
<ellipse style="fill-opacity: 0.2;" cx="50" cy="423" rx="25" ry="3"/>
<path d="M 48 421 C 48 414 49 397 43 378 C 48 385 50 393 51 399 C 54 395 59 392 65 393 C 58 397 61 404 52 404 C 52 410 49 422 48 421 Z" style="fill: rgb(144, 58, 178);"/>
<ellipse style="fill-opacity: 0.2;" cx="50" cy="203" rx="17" ry="3"/>
<path d="M 39 199 L 32 156 L 42 187 L 38 140 L 47 188 L 47 143 L 51 193 L 56 145 L 56 188 L 68 143 L 61 201 C 60 205 38 205 39 199 Z" style="fill: rgb(175, 70, 216);"/>
<path d="M 55 288 C 56 291 56 293 55 294 C 53 295 51 293 50 291 C 49 288 49 286 50 285 C 52 284 54 286 55 288 Z" style="fill: rgb(192, 220, 203);"/>
<path d="M 48 314 C 46 299 73 287 79 297 C 65 295 66 314 48 314 Z" style="fill: rgb(144, 58, 178);"/>
<path style="fill: rgb(144, 58, 178);" d="M 49 424 C 68 423 62 408 77 405 C 64 399 45 410 49 424 Z"/>
<path d="M 50 424 C 52 409 32 396 19 407 C 33 405 32 424 50 424 Z" style="fill: rgb(175, 70, 216);"/>
<rect width="100" height="100" style="fill: rgb(89, 36, 110);" x="-110" y="220"/>
<ellipse style="fill-opacity: 0.2;" cx="-59" cy="309" rx="28" ry="6"/>
<path d="M -78 312 L -73 305 C -70 302 -73 288 -74 279 C -99 215 -37 215 -45 278 C -47 289 -44 303 -42 304 L -37 310 L -47 306 C -46 302 -53 284 -51 284 C -53 284 -41 297 -38 298 L -36 304 L -44 300 C -42 300 -56 286 -58 286 C -59 286 -63 307 -61 308 L -68 313 L -67 308 C -64 308 -67 284 -68 284 C -67 284 -69 304 -68 307 L -78 312 Z" style="fill: rgb(142, 193, 165);"/>
<circle style="fill: rgb(223, 255, 235);" cy="246" r="8" cx="-62"/>
<path d="M -56 246 C -56 249 -59 252 -62 252 C -65 252 -68 249 -68 246 C -68 243 -65 240 -62 240 C -61 240 -60 240 -59 241 C -58 241 -62 245 -62 246 C -61 246 -57 243 -57 243 C -56 244 -56 245 -56 246 Z" style=""/>
<path d="M -71 263 L -68 273 L -67 266 L -65 271 L -62 265 L -60 272 L -57 265 L -54 272 L -53 264 L -50 272 L -48 262 C -48 258 -71 259 -71 263 Z" style="fill: rgb(223, 255, 235);"/>
<path d="M 49 282 C 50 275 46 265 52 254" style="fill: none; stroke: rgb(192, 220, 203);"/>
<path d="M 52 254 C 54 253 57 258 57 261 C 55 258 50 256 52 254 Z" style="fill: rgb(223, 255, 235);"/>
<path d="M 52 254 C 51 252 45 255 44 257 C 47 257 53 256 52 254 Z" style="fill: rgb(223, 255, 235);"/>
<path d="M 41 377 C 38 370 29 373 27 380 C 34 376 43 383 41 377 Z" style="fill: rgb(223, 255, 235);"/>
<path d="M 45 377 C 45 370 60 371 60 380 C 51 376 45 385 45 377 Z" style="fill: rgb(223, 255, 235);"/>
<path d="M 43 378 C 34 378 36 387 39 391 C 46 387 52 378 43 378 Z" style="fill: rgb(223, 255, 235);"/>
<path d="M 42 375 C 35 375 43 366 50 370 C 53 372 49 375 42 375 Z" style="fill: rgb(223, 255, 235);"/>
<ellipse style="fill: rgb(192, 220, 203);" cx="44" cy="376" rx="5" ry="3"/>
<rect width="100" height="100" style="fill: rgb(89, 36, 110);" x="-330"/>
<ellipse style="fill-opacity: 0.2;" cx="-279" cy="89" rx="22" ry="6"/>
<path d="M -256 45 C -256 56 -256 70 -280 70 C -303 70 -304 56 -304 45 C -304 34 -304 25 -280 25 C -256 25 -256 34 -256 45 Z" style="fill: rgb(245, 245, 245);"/>
<path d="M -260 45 C -260 55 -260 63 -280 63 C -300 63 -300 55 -300 45 C -300 36 -300 28 -280 28 C -260 28 -260 36 -260 45 Z" style="fill: rgb(44, 56, 95);"/>
<circle style="fill: rgb(117, 152, 255);" cx="-289" cy="41" r="4"/>
<circle style="fill: rgb(117, 152, 255);" cx="-272" cy="41" r="4"/>
<path d="M -289 52 C -289 56 -271 56 -271 52" style="stroke: rgb(117, 152, 255); stroke-width: 3px; fill: none;"/>
<rect y="440" width="100" height="100" style="fill: rgb(89, 36, 110);"/>
<rect y="550" width="100" height="100" style="fill: rgb(89, 36, 110);" x="220"/>
<path d="M 234 623 C 256 603 259 582 298 561 C 277 581 269 604 234 623 Z" style="fill: rgb(73, 29, 91);"/>
<path d="M 241 640 C 261 632 276 610 310 601 C 290 610 270 627 241 640 Z" style="fill: rgb(73, 29, 91);"/>
<rect width="100" height="100" style="fill: rgb(89, 36, 110);" x="-440"/>
<ellipse style="fill-opacity: 0.2;" cx="-389" cy="89" rx="22" ry="6"/>
<path d="M -373 56 C -373 64 -373 74 -390 74 C -406 74 -407 64 -407 56 C -407 48 -407 41 -390 41 C -373 41 -373 48 -373 56 Z" style="fill: rgb(245, 245, 245);"/>
<path d="M -376 56 C -376 63 -376 69 -390 69 C -404 69 -404 63 -404 56 C -404 49 -404 44 -390 44 C -376 44 -376 49 -376 56 Z" style="fill: rgb(44, 56, 95);"/>
<circle style="fill: rgb(117, 152, 255);" cx="-396" cy="53" r="3"/>
<circle style="fill: rgb(117, 152, 255);" cx="-384" cy="53" r="3"/>
<path d="M -396 61 C -396 64 -384 64 -384 61" style="stroke: rgb(117, 152, 255); stroke-width: 3px; fill: none;"/>
<rect y="550" width="100" height="100" style="fill: rgb(89, 36, 110);"/>
<ellipse style="fill-opacity: 0.2;" cx="50" cy="641" rx="29" ry="4"/>
<path d="M 32 641 C 34 641 43 630 40 625 C 34 623 25 591 25 590 L 37 610 L 28 583 L 38 600 L 34 577 L 40 595 L 38 574 L 44 597 L 44 572 L 50 595 L 50 572 L 54 599 L 57 573 L 58 592 L 64 577 L 60 605 L 67 586 L 62 610 L 73 592 C 73 593 63 622 57 625 C 55 631 64 639 67 639 C 64 644 34 644 32 641 Z" style="fill: rgb(144, 58, 178);"/>
<rect y="440" width="100" height="100" style="fill: rgb(89, 36, 110);" x="110"/>
<ellipse style="fill-opacity: 0.2;" cx="160" cy="531" rx="36" ry="4"/>
<polygon style="fill: rgb(144, 58, 178);" points="133 531 142 514 122 477 129 480 126 470 142 488 135 463 141 472 141 461 151 485 152 459 156 471 160 458 162 486 171 459 172 471 180 463 174 492 187 473 186 484 196 480 175 513 188 531"/>
<rect y="660" width="100" height="100" style="fill: rgb(89, 36, 110);"/>
<ellipse style="fill-opacity: 0.2;" cx="49" cy="753" rx="11" ry="3"/>
<path d="M 38 726 C 32 719 34 681 57 698" style="fill: none; stroke: rgb(192, 220, 203);"/>
<path d="M 61 731 C 69 735 60 756 51 752 C 41 747 52 727 61 731 Z" style="fill: rgb(192, 220, 203);"/>
<path d="M 44 723 C 56 723 58 753 44 753 C 30 753 32 723 44 723 Z" style="fill: rgb(223, 255, 235);" transform="matrix(0.93742, -0.348202, 0.348202, 0.93742, -254.219359, 61.5052)"/>
<path style="fill: rgb(175, 70, 216);" d="M 38 726 C 28 725 31 716 24 715 C 30 712 40 719 38 726 Z"/>
<path d="M 42 727 C 44 724 51 731 49 734 C 47 737 40 730 42 727 Z" style="fill: rgb(192, 220, 203);"/>
<path d="M 57 698 C 59 697 62 702 62 705 C 60 702 55 700 57 698 Z" style="fill: rgb(223, 255, 235);"/>
<path d="M 57 698 C 56 696 50 699 49 701 C 52 701 58 700 57 698 Z" style="fill: rgb(223, 255, 235);"/>
<path d="M 56 698 C 55 696 60 694 63 694 C 60 696 58 701 56 698 Z" style="fill: rgb(223, 255, 235);"/>
<rect y="550" width="100" height="100" style="fill: rgb(89, 36, 110);" x="110"/>
<ellipse style="fill-opacity: 0.2;" cx="159" cy="643" rx="8" ry="3"/>
<ellipse style="fill: rgb(223, 255, 235);" cx="159" cy="634" rx="7" ry="10"/>
<path d="M 164 629 C 165 632 165 634 164 635 C 162 636 160 634 159 632 C 158 629 158 627 159 626 C 161 625 163 627 164 629 Z" style="fill: rgb(192, 220, 203);"/>
<path d="M 159 625 C 160 618 156 608 162 597" style="fill: none; stroke: rgb(192, 220, 203);"/>
<path style="fill: rgb(175, 70, 216);" d="M 159 625 C 149 624 152 615 145 614 C 151 611 161 618 159 625 Z"/>
<path d="M 162 597 C 164 596 167 601 167 604 C 165 601 160 599 162 597 Z" style="fill: rgb(223, 255, 235);"/>
<path d="M 162 597 C 161 595 155 598 154 600 C 157 600 163 599 162 597 Z" style="fill: rgb(223, 255, 235);"/>
<path d="M 161 597 C 160 595 165 593 168 593 C 165 595 163 600 161 597 Z" style="fill: rgb(223, 255, 235);"/>
<polygon style="fill: rgb(206, 206, 206);" points="-398 72 -402 79 -399 87 -402 91 -396 88 -399 80 -394 73"/>
<polygon style="fill: rgb(206, 206, 206);" points="-381 91 -385 84 -382 76 -385 72 -379 75 -382 83 -377 90" transform="matrix(-1, 0, 0, -1, -762, 163)"/>
<rect width="100" height="100" style="fill: rgb(89, 36, 110);" x="-550"/>
<ellipse style="fill-opacity: 0.2;" cx="-499" cy="89" rx="22" ry="6"/>
<path d="M -483 46 C -483 54 -483 64 -500 64 C -516 64 -517 54 -517 46 C -517 38 -517 31 -500 31 C -483 31 -483 38 -483 46 Z" style="fill: rgb(245, 245, 245);"/>
<path d="M -486 46 C -486 53 -486 59 -500 59 C -514 59 -514 53 -514 46 C -514 39 -514 34 -500 34 C -486 34 -486 39 -486 46 Z" style="fill: rgb(44, 56, 95);"/>
<circle style="fill: rgb(117, 152, 255);" cx="-506" cy="43" r="3"/>
<circle style="fill: rgb(117, 152, 255);" cx="-494" cy="43" r="3"/>
<path d="M -506 51 C -506 54 -494 54 -494 51" style="stroke: rgb(117, 152, 255); stroke-width: 3px; fill: none;"/>
<path d="M -297 76 L -295 81 L -290 81 L -291 76 L -286 68 L -295 65 L -297 76 Z" style="fill: rgb(206, 206, 206);"/>
<path d="M -296 85 C -306 93 -297 97 -287 86 L -290 79 C -290 81 -296 81 -296 79 L -296 85 Z" style="fill: rgb(245, 245, 245);"/>
<path d="M -272 70 L -270 65 L -265 65 L -266 70 L -261 78 L -270 81 L -272 70 Z" style="fill: rgb(206, 206, 206);" transform="matrix(-1, 0, 0, -1, -533, 146)"/>
<path d="M -266 86 C -276 78 -268 75 -258 86 L -260 93 C -260 91 -266 91 -266 93 L -266 86 Z" style="fill: rgb(245, 245, 245);" transform="matrix(-1, 0, 0, -1, -528.59552, 171.831131)"/>
<path d="M -315 57 L -312 70 L -308 66 L -309 58 L -303 51 L -303 40 L -315 57 Z" style="fill: rgb(206, 206, 206);"/>
<path d="M -257 53 L -254 40 L -250 44 L -251 52 L -245 59 L -245 70 L -257 53 Z" style="fill: rgb(206, 206, 206);" transform="matrix(-1, 0, 0, -1, -502, 110)"/>
<path d="M -251 66 L -248 66 L -252 71 L -248 71 L -253 76 L -257 72 L -251 66 Z" style="fill: rgb(245, 245, 245);" transform="matrix(-1, 0, 0, -1, -505, 142)"/>
<path d="M -306 76 L -303 76 L -307 71 L -303 71 L -308 66 L -312 70 L -306 76 Z" style="fill: rgb(245, 245, 245);"/>
<polygon style="fill: rgb(206, 206, 206);" points="-406 52 -414 63 -411 76 -406 78 -410 73 -411 64 -406 58"/>
<polygon style="fill: rgb(206, 206, 206);" points="-366 78 -374 67 -371 54 -366 52 -370 57 -371 66 -366 72" transform="matrix(-1, 0, 0, -1, -740, 130)"/>
<path d="M -515 72 C -517 72 -517 77 -515 77 L -512 85 C -513 85 -513 88 -512 88 L -517 93 L -510 95 L -508 88 C -507 88 -507 85 -508 85 L -511 77 C -509 77 -509 72 -511 72 L -507 63 C -506 61 -512 59 -512 60 L -515 72 Z" style="fill: rgb(206, 206, 206);"/>
<path d="M -490 83 C -492 83 -492 78 -490 78 L -487 70 C -488 70 -488 67 -487 67 L -492 62 L -485 60 L -483 67 C -482 67 -482 70 -483 70 L -486 78 C -484 78 -484 83 -486 83 L -482 92 C -481 94 -487 96 -487 95 L -490 83 Z" style="fill: rgb(206, 206, 206);" transform="matrix(-1, 0, 0, -1, -973.887573, 155.265984)"/>
<path d="M -527 59 C -529 59 -529 64 -527 64 L -527 72 C -528 72 -528 75 -527 75 C -527 79 -524 82 -522 81 C -522 80 -524 80 -523 79 C -522 78 -521 79 -521 79 C -519 77 -524 76 -524 75 C -523 75 -523 72 -524 72 L -523 64 C -521 64 -521 59 -523 59 L -516 54 C -515 54 -515 48 -516 48 L -527 59 Z" style="fill: rgb(206, 206, 206);"/>
<path d="M -483 70 C -485 70 -485 65 -483 65 L -483 57 C -484 57 -484 54 -483 54 C -483 50 -480 47 -478 48 C -478 49 -480 49 -479 50 C -478 51 -477 50 -477 50 C -475 52 -480 53 -480 54 C -479 54 -479 57 -480 57 L -479 65 C -477 65 -477 70 -479 70 L -472 75 C -471 75 -471 81 -472 81 L -483 70 Z" style="fill: rgb(206, 206, 206);" transform="matrix(-1, 0, 0, -1, -955.75, 128.806183)"/>
<rect width="100" height="100" style="fill: rgb(89, 36, 110);" x="-550" y="-110"/>
<ellipse style="fill-opacity: 0.2;" cx="-499" cy="-21" rx="22" ry="6"/>
<path d="M -483 -64 C -483 -56 -483 -46 -500 -46 C -516 -46 -517 -56 -517 -64 C -517 -72 -517 -79 -500 -79 C -483 -79 -483 -72 -483 -64 Z" style="fill: rgb(245, 245, 245);"/>
<path d="M -486 -64 C -486 -57 -486 -51 -500 -51 C -514 -51 -514 -57 -514 -64 C -514 -71 -514 -76 -500 -76 C -486 -76 -486 -71 -486 -64 Z" style="fill: rgb(44, 56, 95);"/>
<circle style="fill: rgb(117, 152, 255);" cx="-506" cy="-67" r="3"/>
<circle style="fill: rgb(117, 152, 255);" cx="-494" cy="-67" r="3"/>
<path d="M -506 -59 C -506 -56 -494 -56 -494 -59" style="stroke: rgb(117, 152, 255); stroke-width: 3px; fill: none;"/>
<path d="M -515 -35 C -517 -35 -517 -28 -515 -28 L -512 -18 C -513 -18 -513 -14 -512 -14 L -517 -8 L -510 -5 L -508 -14 C -507 -14 -507 -18 -508 -18 L -511 -28 C -509 -28 -509 -35 -511 -35 L -507 -46 C -506 -49 -512 -51 -512 -50 L -515 -35 Z" style="fill: rgb(206, 206, 206);"/>
<path d="M -490 -34 C -492 -34 -492 -37 -490 -37 L -487 -43 C -488 -43 -488 -45 -487 -45 L -492 -49 L -485 -50 L -483 -45 C -482 -45 -482 -43 -483 -43 L -486 -37 C -484 -37 -484 -34 -486 -34 L -482 -27 C -481 -26 -487 -24 -487 -25 L -490 -34 Z" style="fill: rgb(206, 206, 206);" transform="matrix(-1, 0, 0, -1, -973.887573, -74.727457)"/>
<path d="M -527 -51 C -529 -51 -529 -46 -527 -46 L -527 -38 C -528 -38 -528 -35 -527 -35 C -527 -31 -524 -28 -522 -29 C -522 -30 -524 -30 -523 -31 C -522 -32 -521 -31 -521 -31 C -519 -33 -524 -34 -524 -35 C -523 -35 -523 -38 -524 -38 L -523 -46 C -521 -46 -521 -51 -523 -51 L -516 -56 C -515 -56 -515 -62 -516 -62 L -527 -51 Z" style="fill: rgb(206, 206, 206);"/>
<path d="M -483 -40 C -485 -40 -485 -45 -483 -45 L -483 -53 C -484 -53 -484 -56 -483 -56 C -483 -60 -480 -63 -478 -62 C -478 -61 -480 -61 -479 -60 C -478 -59 -477 -60 -477 -60 C -475 -58 -480 -57 -480 -56 C -479 -56 -479 -53 -480 -53 L -479 -45 C -477 -45 -477 -40 -479 -40 L -472 -35 C -471 -35 -471 -29 -472 -29 L -483 -40 Z" style="fill: rgb(206, 206, 206);" transform="matrix(-1, 0, 0, -1, -955.75, -91.193817)"/>
<rect width="100" height="100" style="fill: rgb(89, 36, 110);" x="-550" y="-220"/>
<ellipse style="fill-opacity: 0.2;" cx="-499" cy="-131" rx="22" ry="6"/>
<path d="M -525 -165 C -527 -165 -527 -161 -525 -161 L -525 -154 C -526 -154 -526 -152 -525 -152 C -525 -149 -523 -146 -521 -147 C -521 -148 -523 -148 -522 -149 C -521 -149 -520 -149 -520 -149 C -519 -150 -523 -151 -523 -152 C -522 -152 -522 -154 -523 -154 L -522 -161 C -520 -161 -520 -165 -522 -165 L -516 -172 C -515 -172 -515 -179 -516 -179 L -525 -165 Z" style="fill: rgb(206, 206, 206);"/>
<path d="M -483 -174 C -483 -166 -483 -156 -500 -156 C -516 -156 -517 -166 -517 -174 C -517 -182 -517 -189 -500 -189 C -483 -189 -483 -182 -483 -174 Z" style="fill: rgb(245, 245, 245);"/>
<path d="M -486 -174 C -486 -167 -486 -161 -500 -161 C -514 -161 -514 -167 -514 -174 C -514 -181 -514 -186 -500 -186 C -486 -186 -486 -181 -486 -174 Z" style="fill: rgb(44, 56, 95);"/>
<circle style="fill: rgb(117, 152, 255);" cx="-506" cy="-177" r="3"/>
<circle style="fill: rgb(117, 152, 255);" cx="-494" cy="-177" r="3"/>
<path d="M -506 -169 C -506 -166 -494 -166 -494 -169" style="stroke: rgb(117, 152, 255); stroke-width: 3px; fill: none;"/>
<path d="M -515 -145 C -517 -145 -517 -138 -515 -138 L -512 -128 C -513 -128 -513 -124 -512 -124 L -517 -118 L -510 -115 L -508 -124 C -507 -124 -507 -128 -508 -128 L -511 -138 C -509 -138 -509 -145 -511 -145 L -507 -156 C -506 -159 -512 -161 -512 -160 L -515 -145 Z" style="fill: rgb(206, 206, 206);"/>
<path d="M -490 -144 C -492 -144 -492 -147 -490 -147 L -487 -153 C -488 -153 -488 -155 -487 -155 L -492 -159 L -485 -160 L -483 -155 C -482 -155 -482 -153 -483 -153 L -486 -147 C -484 -147 -484 -144 -486 -144 L -482 -137 C -481 -136 -487 -134 -487 -135 L -490 -144 Z" style="fill: rgb(206, 206, 206);" transform="matrix(-1, 0, 0, -1, -973.887573, -294.727463)"/>
<path d="M -483 -154 C -485 -154 -485 -160 -483 -160 L -483 -169 C -484 -169 -484 -173 -483 -173 C -483 -178 -479 -181 -477 -180 C -477 -179 -479 -179 -478 -178 C -477 -176 -476 -178 -476 -178 C -474 -175 -479 -174 -479 -173 C -478 -173 -478 -169 -479 -169 L -478 -160 C -476 -160 -476 -154 -478 -154 L -470 -148 C -469 -148 -469 -141 -470 -141 L -483 -154 Z" style="fill: rgb(206, 206, 206);" transform="matrix(-1, 0, 0, -1, -953.75, -321.191605)"/>
<rect width="100" height="100" style="fill: rgb(89, 36, 110);" x="-660"/>
<ellipse style="fill-opacity: 0.2;" cx="-609" cy="89" rx="22" ry="6"/>
<path d="M -593 55 C -593 63 -593 73 -610 73 C -626 73 -627 63 -627 55 C -627 47 -627 40 -610 40 C -593 40 -593 47 -593 55 Z" style="fill: rgb(245, 245, 245);"/>
<path d="M -596 55 C -596 62 -596 68 -610 68 C -624 68 -624 62 -624 55 C -624 48 -624 43 -610 43 C -596 43 -596 48 -596 55 Z" style="fill: rgb(44, 56, 95);"/>
<circle style="fill: rgb(117, 152, 255);" cx="-616" cy="52" r="3"/>
<circle style="fill: rgb(117, 152, 255);" cx="-604" cy="52" r="3"/>
<path d="M -616 60 C -616 63 -604 63 -604 60" style="stroke: rgb(117, 152, 255); stroke-width: 3px; fill: none;"/>
<path d="M -625 78 C -627 78 -627 81 -625 81 L -622 87 C -623 87 -623 90 -622 90 L -627 93 L -620 95 L -618 90 C -617 90 -617 87 -618 87 L -621 81 C -619 81 -619 78 -621 78 L -617 71 C -616 69 -622 68 -622 69 L -625 78 Z" style="fill: rgb(206, 206, 206);"/>
<path d="M -594 78 C -592 78 -592 81 -594 81 L -597 87 C -596 87 -596 90 -597 90 L -592 93 L -599 95 L -601 90 C -602 90 -602 87 -601 87 L -598 81 C -600 81 -600 78 -598 78 L -602 71 C -603 69 -597 68 -597 69 L -594 78 Z" style="fill: rgb(206, 206, 206);"/>
<path d="M -637 63 C -639 63 -639 67 -637 67 L -637 73 C -638 73 -638 76 -637 76 C -637 79 -634 81 -632 81 C -632 80 -634 80 -633 79 C -632 78 -631 79 -631 79 C -629 77 -634 77 -634 76 C -633 76 -633 73 -634 73 L -633 67 C -631 67 -631 63 -633 63 L -626 59 C -625 59 -625 54 -626 54 L -637 63 Z" style="fill: rgb(206, 206, 206);"/>
<path d="M -583 63 C -581 63 -581 67 -583 67 L -583 73 C -582 73 -582 76 -583 76 C -583 79 -586 81 -588 81 C -588 80 -586 80 -587 79 C -588 78 -589 79 -589 79 C -591 77 -586 77 -586 76 C -587 76 -587 73 -586 73 L -587 67 C -589 67 -589 63 -587 63 L -594 59 C -595 59 -595 54 -594 54 L -583 63 Z" style="fill: rgb(206, 206, 206);"/>
<rect width="100" height="100" style="fill: rgb(89, 36, 110);" x="-770"/>
<ellipse style="fill-opacity: 0.2;" cx="-719" cy="92" rx="22" ry="4"/>
<path d="M -703 55 C -703 63 -703 73 -720 73 C -736 73 -737 63 -737 55 C -737 48 -737 41 -724 40 C -723 40 -723 36 -720 36 C -717 36 -717 40 -716 40 C -703 41 -703 48 -703 55 Z" style="fill: rgb(245, 245, 245);"/>
<path d="M -706 55 C -706 62 -706 68 -720 68 C -734 68 -734 62 -734 55 C -734 48 -734 43 -720 43 C -706 43 -706 48 -706 55 Z" style="fill: rgb(44, 56, 95);"/>
<circle style="fill: rgb(117, 152, 255);" cx="-726" cy="52" r="3"/>
<circle style="fill: rgb(117, 152, 255);" cx="-714" cy="52" r="3"/>
<path d="M -726 60 C -726 63 -714 63 -714 60" style="stroke: rgb(117, 152, 255); stroke-width: 3px; fill: none;"/>
<path d="M -735 78 C -737 78 -737 81 -735 81 L -732 87 C -733 87 -733 90 -732 90 L -737 93 C -738 95 -730 96 -730 95 L -728 90 C -727 90 -727 87 -728 87 L -731 81 C -729 81 -729 78 -731 78 L -727 71 C -726 69 -732 68 -732 69 L -735 78 Z" style="fill: rgb(245, 245, 245);"/>
<path d="M -704 78 C -702 78 -702 81 -704 81 L -707 87 C -706 87 -706 90 -707 90 L -702 93 C -701 95 -709 96 -709 95 L -711 90 C -712 90 -712 87 -711 87 L -708 81 C -710 81 -710 78 -708 78 L -712 71 C -713 69 -707 68 -707 69 L -704 78 Z" style="fill: rgb(245, 245, 245);"/>
<circle style="fill: rgb(255, 58, 104);" cx="-720" cy="39" r="1"/>
<rect width="100" height="100" style="fill: rgb(89, 36, 110);" x="-220"/>
<ellipse style="fill-opacity: 0.2;" cy="92" rx="22" ry="4" cx="-170"/>
<path d="M -153 48 C -153 56 -153 74 -170 74 C -186 74 -187 56 -187 48 C -187 41 -187 34 -174 33 C -173 33 -173 29 -170 29 C -167 29 -167 33 -166 33 C -153 34 -153 41 -153 48 Z" style="fill: rgb(245, 245, 245);"/>
<path d="M -156 48 C -156 55 -156 61 -170 61 C -184 61 -184 55 -184 48 C -184 41 -184 36 -170 36 C -156 36 -156 41 -156 48 Z" style="fill: rgb(44, 56, 95);"/>
<circle style="fill: rgb(117, 152, 255);" cx="-176" cy="45" r="3"/>
<circle style="fill: rgb(117, 152, 255);" cx="-164" cy="45" r="3"/>
<path d="M -176 53 C -176 56 -164 56 -164 53" style="stroke: rgb(117, 152, 255); stroke-width: 3px; fill: none;"/>
<path style="fill: rgb(216, 216, 216);" d="M -181 69 C -180 66 -171 67 -175 73 C -177 73 -180 71 -181 69 Z"/>
<path d="M -183 78 C -185 78 -185 81 -183 81 L -180 87 C -181 87 -181 90 -180 90 L -185 93 C -186 95 -178 96 -178 95 L -176 90 C -175 90 -175 87 -176 87 L -179 81 C -177 81 -177 78 -179 78 L -175 71 C -174 69 -180 68 -180 69 L -183 78 Z" style="fill: rgb(245, 245, 245);"/>
<path style="fill: rgb(216, 216, 216);" d="M -159 69 C -160 66 -169 67 -165 73 C -163 73 -160 71 -159 69 Z"/>
<path d="M -157 78 C -155 78 -155 81 -157 81 L -160 87 C -159 87 -159 90 -160 90 L -155 93 C -154 95 -162 96 -162 95 L -164 90 C -165 90 -165 87 -164 87 L -161 81 C -163 81 -163 78 -161 78 L -165 71 C -166 69 -160 68 -160 69 L -157 78 Z" style="fill: rgb(245, 245, 245);"/>
<circle style="fill: rgb(255, 58, 104);" cy="33" r="1" cx="-170"/>
<rect width="100" height="100" style="fill: rgb(89, 36, 110);" y="-110" x="-220"/>
<ellipse style="fill-opacity: 0.2;" cy="-18" rx="22" ry="4" cx="-170"/>
<path d="M -153 -58 C -153 -50 -151 -35 -170 -35 C -189 -35 -187 -50 -187 -58 C -187 -65 -187 -72 -174 -73 C -173 -73 -173 -77 -170 -77 C -167 -77 -167 -73 -166 -73 C -153 -72 -153 -65 -153 -58 Z" style="fill: rgb(245, 245, 245);"/>
<path d="M -156 -58 C -156 -51 -156 -45 -170 -45 C -184 -45 -184 -51 -184 -58 C -184 -65 -184 -70 -170 -70 C -156 -70 -156 -65 -156 -58 Z" style="fill: rgb(44, 56, 95);"/>
<circle style="fill: rgb(117, 152, 255);" cx="-176" cy="-61" r="3"/>
<circle style="fill: rgb(117, 152, 255);" cx="-164" cy="-61" r="3"/>
<path d="M -176 -53 C -176 -50 -164 -50 -164 -53" style="stroke: rgb(117, 152, 255); stroke-width: 3px; fill: none;"/>
<path style="fill: rgb(216, 216, 216);" d="M -184 -41 C -183 -44 -174 -43 -178 -37 C -180 -37 -183 -39 -184 -41 Z"/>
<path d="M -187 -32 C -189 -32 -189 -29 -187 -29 L -184 -23 C -185 -23 -185 -20 -184 -20 L -189 -17 C -190 -15 -182 -14 -182 -15 L -180 -20 C -179 -20 -179 -23 -180 -23 L -183 -29 C -181 -29 -181 -32 -183 -32 L -178 -39 C -177 -41 -183 -42 -183 -41 L -187 -32 Z" style="fill: rgb(245, 245, 245);"/>
<path style="fill: rgb(216, 216, 216);" d="M -156 -41 C -157 -44 -166 -43 -162 -37 C -160 -37 -157 -39 -156 -41 Z"/>
<path d="M -153 -32 C -151 -32 -151 -29 -153 -29 L -156 -23 C -155 -23 -155 -20 -156 -20 L -151 -17 C -150 -15 -158 -14 -158 -15 L -160 -20 C -161 -20 -161 -23 -160 -23 L -157 -29 C -159 -29 -159 -32 -157 -32 L -162 -39 C -163 -41 -157 -42 -157 -41 L -153 -32 Z" style="fill: rgb(245, 245, 245);"/>
<circle style="fill: rgb(255, 58, 104);" cy="-73" r="1" cx="-170"/>
<rect width="100" height="100" style="fill: rgb(89, 36, 110);" x="-220" y="110"/>
<ellipse style="fill-opacity: 0.2;" cy="202" rx="22" ry="4" cx="-170"/>
<path d="M -149 158 C -149 166 -149 184 -166 184 C -182 184 -183 166 -183 158 C -183 151 -183 144 -170 143 C -169 143 -169 139 -166 139 C -163 139 -163 143 -162 143 C -149 144 -149 151 -149 158 Z" style="fill: rgb(245, 245, 245);"/>
<path d="M -152 158 C -152 165 -152 171 -166 171 C -180 171 -180 165 -180 158 C -180 151 -180 146 -166 146 C -152 146 -152 151 -152 158 Z" style="fill: rgb(44, 56, 95);"/>
<circle style="fill: rgb(117, 152, 255);" cx="-172" cy="155" r="3"/>
<circle style="fill: rgb(117, 152, 255);" cx="-160" cy="155" r="3"/>
<path d="M -172 163 C -172 166 -160 166 -160 163" style="stroke: rgb(117, 152, 255); stroke-width: 3px; fill: none;"/>
<path style="fill: rgb(216, 216, 216);" d="M -177 179 C -176 176 -167 177 -171 183 C -173 183 -176 181 -177 179 Z"/>
<path d="M -181 188 C -183 188 -183 191 -181 191 L -180 197 C -181 197 -181 200 -180 200 L -185 203 C -186 205 -178 206 -178 205 L -176 200 C -175 200 -175 197 -176 197 L -177 191 C -175 191 -175 188 -177 188 L -171 181 C -170 179 -176 178 -176 179 L -181 188 Z" style="fill: rgb(245, 245, 245);"/>
<path style="fill: rgb(216, 216, 216);" d="M -155 179 C -156 176 -165 177 -161 183 C -159 183 -156 181 -155 179 Z"/>
<path d="M -148 186 C -146 186 -146 189 -148 189 L -151 195 C -150 195 -150 198 -151 198 L -146 201 C -145 203 -153 204 -153 203 L -155 198 C -156 198 -156 195 -155 195 L -152 189 C -154 189 -154 186 -152 186 L -156 179 C -157 177 -151 176 -151 177 L -148 186 Z" style="fill: rgb(245, 245, 245);" transform="matrix(0.904559, -0.426349, 0.426349, 0.904559, -95.41914, -46.250379)"/>
<circle style="fill: rgb(255, 58, 104);" cy="143" r="1" cx="-166"/>
<rect width="100" height="100" style="fill: rgb(89, 36, 110);" x="-220" y="220"/>
<ellipse style="fill-opacity: 0.2;" cy="312" rx="22" ry="4" cx="-170"/>
<path d="M -149 268 C -149 276 -149 294 -166 294 C -182 294 -183 276 -183 268 C -183 261 -183 254 -170 253 C -169 253 -169 249 -166 249 C -163 249 -163 253 -162 253 C -149 254 -149 261 -149 268 Z" style="fill: rgb(245, 245, 245);"/>
<path d="M -152 268 C -152 275 -152 281 -166 281 C -180 281 -180 275 -180 268 C -180 261 -180 256 -166 256 C -152 256 -152 261 -152 268 Z" style="fill: rgb(44, 56, 95);"/>
<circle style="fill: rgb(117, 152, 255);" cx="-172" cy="265" r="3"/>
<circle style="fill: rgb(117, 152, 255);" cx="-160" cy="265" r="3"/>
<path d="M -172 273 C -172 276 -160 276 -160 273" style="stroke: rgb(117, 152, 255); stroke-width: 3px; fill: none;"/>
<path style="fill: rgb(216, 216, 216);" d="M -177 289 C -176 286 -167 287 -171 293 C -173 293 -176 291 -177 289 Z"/>
<path style="fill: rgb(216, 216, 216);" d="M -155 289 C -156 286 -165 287 -161 293 C -159 293 -156 291 -155 289 Z"/>
<path d="M -151 298 C -149 298 -149 301 -151 301 L -152 307 C -151 307 -151 310 -152 310 L -147 313 C -146 315 -154 316 -154 315 L -156 310 C -157 310 -157 307 -156 307 L -155 301 C -157 301 -157 298 -155 298 L -161 291 C -162 289 -156 288 -156 289 L -151 298 Z" style="fill: rgb(245, 245, 245);"/>
<path d="M -182 295 C -184 294 -185 297 -183 298 L -183 305 C -184 304 -185 307 -184 307 L -190 308 C -192 309 -185 314 -185 313 L -181 309 C -180 309 -179 307 -180 306 L -180 300 C -178 300 -177 298 -178 297 L -172 292 C -169 290 -175 287 -176 289 L -182 295 Z" style="fill: rgb(245, 245, 245);"/>
<circle style="fill: rgb(255, 58, 104);" cy="253" r="1" cx="-166"/>
<rect width="100" height="100" style="fill: rgb(89, 36, 110);" x="-330" y="110"/>
<ellipse style="fill-opacity: 0.2;" cy="202" rx="22" ry="4" cx="-280"/>
<path d="M -263 154 C -262 162 -259 180 -276 183 C -291 185 -295 168 -296 160 C -297 153 -299 146 -286 143 C -285 143 -285 138 -282 138 C -280 138 -279 142 -278 142 C -265 141 -264 147 -263 154 Z" style="fill: rgb(245, 245, 245);"/>
<path d="M -266 155 C -265 162 -264 168 -278 170 C -292 172 -293 166 -294 159 C -295 152 -296 147 -282 145 C -268 143 -267 148 -266 155 Z" style="fill: rgb(44, 56, 95);"/>
<circle style="fill: rgb(117, 152, 255);" cx="-286" cy="155" r="3"/>
<circle style="fill: rgb(117, 152, 255);" cx="-274" cy="154" r="3"/>
<path d="M -285 163 C -282 166 -274 164 -273 161" style="stroke: rgb(117, 152, 255); stroke-width: 3px; fill: none;"/>
<path style="fill: rgb(216, 216, 216);" d="M -287 180 C -287 176 -278 176 -281 183 C -283 183 -286 181 -287 180 Z"/>
<path style="fill: rgb(216, 216, 216);" d="M -266 176 C -268 174 -276 176 -272 181 C -270 181 -267 179 -266 176 Z"/>
<circle style="fill: rgb(255, 58, 104);" cy="143" r="1" cx="-282"/>
<path d="M -291 188 C -293 188 -293 191 -291 191 L -290 197 C -291 197 -291 200 -290 200 L -295 203 C -296 205 -288 206 -288 205 L -286 200 C -285 200 -285 197 -286 197 L -287 191 C -285 191 -285 188 -287 188 L -281 181 C -280 179 -286 178 -286 179 L -291 188 Z" style="fill: rgb(245, 245, 245);"/>
<path d="M -261 183 C -259 182 -258 185 -260 186 L -260 193 C -259 192 -258 195 -259 195 L -253 196 C -251 197 -258 202 -258 201 L -262 197 C -263 197 -264 195 -263 194 L -263 188 C -265 188 -266 186 -265 185 L -271 180 C -273 179 -268 175 -268 176 L -261 183 Z" style="fill: rgb(245, 245, 245);"/>
<rect width="100" height="100" style="fill: rgb(89, 36, 110);" x="-330" y="220"/>
<ellipse style="fill-opacity: 0.2;" cy="312" rx="22" ry="4" cx="-280"/>
<path d="M -254 272 C -256 279 -260 297 -277 292 C -292 288 -289 270 -287 263 C -285 256 -283 249 -270 252 C -269 252 -268 248 -265 249 C -262 250 -263 253 -262 254 C -250 258 -252 265 -254 272 Z" style="fill: rgb(245, 245, 245);"/>
<path d="M -256 271 C -258 277 -260 283 -273 280 C -287 276 -285 270 -283 263 C -282 257 -280 252 -267 255 C -253 259 -255 264 -256 271 Z" style="fill: rgb(44, 56, 95);"/>
<circle style="fill: rgb(117, 152, 255);" cx="-275" cy="263" r="3"/>
<circle style="fill: rgb(117, 152, 255);" cx="-264" cy="266" r="3"/>
<path d="M -278 270 C -277 274 -270 276 -266 274" style="stroke: rgb(117, 152, 255); stroke-width: 3px; fill: none;"/>
<path style="fill: rgb(216, 216, 216);" d="M -287 284 C -285 281 -276 285 -282 290 C -284 289 -286 286 -287 284 Z"/>
<path style="fill: rgb(216, 216, 216);" d="M -265 290 C -265 287 -274 285 -272 292 C -270 293 -266 292 -265 290 Z"/>
<circle style="fill: rgb(255, 58, 104);" cy="253" r="1" cx="-266"/>
<path d="M -261 298 C -259 298 -259 301 -261 301 L -262 307 C -261 307 -261 310 -262 310 L -257 313 C -256 315 -264 316 -264 315 L -266 310 C -267 310 -267 307 -266 307 L -265 301 C -267 301 -267 298 -265 298 L -271 291 C -272 289 -266 288 -266 289 L -261 298 Z" style="fill: rgb(245, 245, 245);"/>
<path d="M -292 291 C -294 290 -295 293 -293 294 L -293 301 C -294 300 -295 303 -294 303 L -300 304 C -302 305 -295 310 -295 309 L -291 305 C -290 305 -289 303 -290 302 L -290 296 C -288 296 -287 294 -288 293 L -282 288 C -279 286 -285 283 -286 285 L -292 291 Z" style="fill: rgb(245, 245, 245);"/>
<rect width="100" height="100" style="fill: rgb(89, 36, 110);" x="-330" y="330"/>
<ellipse style="fill-opacity: 0.2;" cy="422" rx="22" ry="4" cx="-280"/>
<path d="M -265 372 C -264 380 -261 398 -278 401 C -293 403 -297 386 -298 378 C -299 371 -301 364 -288 361 C -287 361 -287 356 -284 356 C -282 356 -281 360 -280 360 C -267 359 -266 365 -265 372 Z" style="fill: rgb(245, 245, 245);"/>
<path d="M -268 373 C -267 380 -266 386 -280 388 C -294 390 -295 384 -296 377 C -297 370 -298 365 -284 363 C -270 361 -269 366 -268 373 Z" style="fill: rgb(44, 56, 95);"/>
<circle style="fill: rgb(117, 152, 255);" cx="-288" cy="373" r="4"/>
<circle style="fill: rgb(117, 152, 255);" cx="-276" cy="372" r="3"/>
<path d="M -286 382 C -283 378 -279 379 -276 381" style="stroke: rgb(117, 152, 255); stroke-width: 3px; fill: none;"/>
<path style="fill: rgb(216, 216, 216);" d="M -289 398 C -289 394 -280 394 -283 401 C -285 401 -288 399 -289 398 Z"/>
<path style="fill: rgb(216, 216, 216);" d="M -268 394 C -270 392 -278 394 -274 399 C -272 399 -269 397 -268 394 Z"/>
<circle style="fill: rgb(255, 58, 104);" cy="361" r="1" cx="-284"/>
<path d="M -263 401 C -261 400 -260 403 -262 404 L -262 411 C -261 410 -260 413 -261 413 L -255 414 C -253 415 -260 420 -260 419 L -264 415 C -265 415 -266 413 -265 412 L -265 406 C -267 406 -268 404 -267 403 L -273 398 C -275 397 -270 393 -270 394 L -263 401 Z" style="fill: rgb(245, 245, 245);"/>
<path d="M -294 403 C -296 402 -297 405 -295 406 L -295 413 C -296 412 -297 415 -296 415 L -302 416 C -304 417 -297 422 -297 421 L -293 417 C -292 417 -291 415 -292 414 L -292 408 C -290 408 -289 406 -290 405 L -284 400 C -281 398 -287 395 -288 397 L -294 403 Z" style="fill: rgb(245, 245, 245);"/>
<rect width="100" height="100" style="fill: rgb(89, 36, 110);" x="-110" y="330"/>
<ellipse style="fill-opacity: 0.2;" cx="-59" cy="419" rx="36" ry="6"/>
<path d="M -90 407 L -92 398 C -89 395 -73 398 -74 389 C -109 326 -10 327 -45 388 C -51 398 -28 394 -26 395 L -31 405 L -33 400 C -32 396 -51 396 -49 396 C -51 396 -46 418 -43 419 L -41 425 L -49 419 C -47 419 -55 398 -60 398 C -64 398 -71 415 -69 416 L -76 421 L -75 416 C -72 416 -69 396 -70 396 C -69 396 -89 398 -88 401 L -90 407 Z" style="fill: rgb(142, 193, 165);"/>
<circle style="fill: rgb(223, 255, 235);" cy="352" r="8" cx="-60"/>
<path d="M -54 352 C -54 354 -57 356 -60 356 C -63 356 -66 354 -66 352 C -66 350 -63 346 -60 346 C -59 346 -58 346 -57 347 C -56 347 -60 351 -60 352 C -59 352 -55 350 -55 350 C -54 350 -54 351 -54 352 Z" style=""/>
<path d="M -73 366 L -72 382 L -68 389 L -66 384 L -64 390 L -60 383 L -57 388 L -54 384 L -51 388 L -47 380 L -46 364 C -46 360 -73 361 -73 366 Z" style="fill: rgb(86, 118, 100);"/>
<path d="M -73 366 L -69 377 L -68 369 L -66 375 L -62 368 L -60 376 L -57 368 L -53 376 L -52 367 L -48 376 L -46 364 C -46 360 -73 361 -73 366 Z" style="fill: rgb(223, 255, 235);"/>
<rect width="100" height="100" style="fill: rgb(89, 36, 110);" x="-110" y="440"/>
<ellipse style="fill-opacity: 0.2;" cx="-59" cy="529" rx="36" ry="6"/>
<path d="M -87 525 L -89 516 C -86 513 -73 508 -74 499 C -108 443 -11 443 -45 498 C -51 508 -31 512 -29 513 L -33 523 L -36 516 C -35 512 -51 506 -49 506 C -51 506 -47 521 -44 522 L -41 527 L -49 525 C -47 525 -55 508 -60 508 C -64 508 -71 527 -69 528 L -76 533 L -75 528 C -72 528 -69 506 -70 506 C -69 506 -86 516 -85 519 L -87 525 Z" style="fill: rgb(142, 193, 165);"/>
<circle style="fill: rgb(223, 255, 235);" cy="467" r="8" cx="-60"/>
<path d="M -54 467 C -54 469 -57 471 -60 471 C -63 471 -66 469 -66 467 C -66 465 -63 461 -60 461 C -59 461 -58 461 -57 462 C -56 462 -60 466 -60 467 C -59 467 -55 465 -55 465 C -54 465 -54 466 -54 467 Z" style=""/>
<path d="M -73 480 L -72 489 L -68 496 L -66 491 L -64 497 L -60 490 L -57 495 L -54 491 L -51 495 L -46 489 L -46 478 C -46 474 -73 475 -73 480 Z" style="fill: rgb(86, 118, 100);"/>
<path d="M -73 480 L -69 491 L -68 483 L -66 489 L -62 482 L -60 490 L -57 482 L -53 490 L -52 481 L -48 490 L -46 478 C -46 474 -73 475 -73 480 Z" style="fill: rgb(223, 255, 235);"/>
<path style="fill: rgb(175, 70, 216);" d="M 60 732 C 68 731 66 724 71 723 C 67 721 59 726 60 732 Z"/>
<rect y="110" width="100" height="100" style="fill: rgb(89, 36, 110);" x="-440"/>
<path d="M -408 198 C -417 193 -391 194 -391 196 C -390 199 -406 205 -408 198 Z" style="fill: rgb(142, 193, 165);"/>
<path d="M -371 192 C -364 185 -389 193 -388 195 C -388 198 -371 200 -371 192 Z" style="fill: rgb(142, 193, 165);"/>
<path d="M -387 203 C -392 199 -395 191 -392 190 C -389 189 -385 197 -387 203 Z" style="fill: rgb(86, 118, 100);"/>
<rect y="220" width="100" height="100" style="fill: rgb(89, 36, 110);" x="-440"/>
<path d="M -408 304 C -415 296 -390 305 -391 307 C -391 310 -408 311 -408 304 Z" style="fill: rgb(142, 193, 165);"/>
<path d="M -372 298 C -367 289 -389 304 -387 306 C -386 309 -369 305 -372 298 Z" style="fill: rgb(142, 193, 165);"/>
<path d="M -387 313 C -392 309 -395 301 -392 300 C -389 299 -385 307 -387 313 Z" style="fill: rgb(86, 118, 100);"/>
<rect width="100" height="200" style="fill: rgb(89, 36, 110);" y="-210"/>
<ellipse style="fill-opacity: 0.2;" cx="50" cy="-20" rx="31" ry="5"/>
<path d="M 40 -23 C 22 -95 62 -113 47 -169 C 70 -122 17 -65 61 -23 C 62 -17 41 -15 40 -23 Z" style="fill: rgb(144, 58, 178);"/>
<path style="fill: rgb(175, 70, 216);" d="M 41 -78 C 22 -78 26 -97 11 -99 C 23 -106 44 -92 41 -78 Z" bx:origin="0 1"/>
<path style="fill: rgb(175, 70, 216);" d="M 49 -112 C 60 -108 63 -120 73 -117 C 67 -124 50 -122 49 -112 Z"/>
<path style="fill: rgb(175, 70, 216);" d="M 46 -37 C 57 -41 51 -52 60 -57 C 51 -58 40 -45 46 -37 Z"/>
<path style="fill: rgb(175, 70, 216);" d="M 51 -171 C 33 -169 34 -182 18 -181 C 29 -190 52 -187 51 -171 Z"/>
<path style="fill: rgb(175, 70, 216);" d="M 47 -171 C 62 -161 71 -178 86 -170 C 79 -183 53 -186 47 -171 Z"/>
<path style="fill: rgb(175, 70, 216);" d="M 47 -171 C 44 -152 64 -151 62 -133 C 71 -145 63 -172 47 -171 Z"/>
<path style="fill: rgb(175, 70, 216);" d="M 51 -171 C 47 -154 28 -160 23 -144 C 19 -158 37 -178 51 -171 Z"/>
<rect width="100" height="200" style="fill: rgb(89, 36, 110);" y="-210" x="110"/>
<ellipse style="fill-opacity: 0.2;" cx="166" cy="-20" rx="31" ry="5"/>
<path d="M 160 -24 C 172 -85 104 -121 165 -185 C 121 -121 156 -127 181 -24 C 181 -16 160 -16 160 -24 Z" style="fill: rgb(144, 58, 178);"/>
<path style="fill: rgb(175, 70, 216);" d="M 163 -57 C 150 -49 145 -64 134 -60 C 139 -69 159 -67 163 -57 Z" bx:origin="0 2"/>
<path style="fill: rgb(175, 70, 216);" d="M 164 -67 C 176 -64 178 -77 188 -74 C 182 -81 164 -78 164 -67 Z"/>
<path style="fill: rgb(175, 70, 216);" d="M 165 -188 C 162 -171 133 -177 128 -161 C 121 -176 143 -195 165 -188 Z"/>
<path style="fill: rgb(175, 70, 216);" d="M 165 -188 C 183 -197 154 -208 134 -198 C 145 -199 143 -186 165 -188 Z"/>
<path style="fill: rgb(175, 70, 216);" d="M 165 -188 C 174 -170 188 -185 204 -168 C 204 -190 170 -204 165 -188 Z"/>
<path style="fill: rgb(175, 70, 216);" d="M 165 -188 C 142 -178 184 -151 166 -142 C 186 -143 179 -178 165 -188 Z"/>
<rect y="220" width="100" height="100" style="fill: rgb(89, 36, 110);" x="110"/>
<ellipse style="fill-opacity: 0.2;" cx="159" cy="313" rx="23" ry="3"/>
<ellipse style="fill: rgb(223, 255, 235);" cx="159" cy="296" rx="10" ry="15"/>
<path d="M 149 296 C 150 289 133 279 139 268" style="fill: none; stroke: rgb(192, 220, 203);"/>
<path style="fill: rgb(175, 70, 216);" d="M 158 314 C 139 313 144 294 129 291 C 142 285 162 300 158 314 Z"/>
<path d="M 165 288 C 166 291 166 293 165 294 C 163 295 161 293 160 291 C 159 288 159 286 160 285 C 162 284 164 286 165 288 Z" style="fill: rgb(192, 220, 203);"/>
<path d="M 169 300 C 185 287 174 282 171 271" style="fill: none; stroke: rgb(192, 220, 203);"/>
<path d="M 158 314 C 156 299 183 287 189 297 C 175 295 176 314 158 314 Z" style="fill: rgb(144, 58, 178);"/>
<path d="M 159 282 C 160 275 156 265 162 254" style="fill: none; stroke: rgb(192, 220, 203);"/>
<path d="M 162 254 C 164 253 167 258 167 261 C 165 258 160 256 162 254 Z" style="fill: rgb(223, 255, 235);"/>
<path d="M 162 254 C 161 252 155 255 154 257 C 157 257 163 256 162 254 Z" style="fill: rgb(223, 255, 235);"/>
<path d="M 162 254 C 164 253 160 249 156 249 C 160 251 160 255 162 254 Z" style="fill: rgb(223, 255, 235);"/>
<path d="M 162 254 C 162 251 168 251 171 253 C 167 253 163 256 162 254 Z" style="fill: rgb(223, 255, 235);"/>
<rect y="220" width="100" height="100" style="fill: rgb(89, 36, 110);" x="-550"/>
<ellipse style="fill: rgb(144, 58, 178);" cx="-499" cy="300" rx="31" ry="13"/>
<path d="M -514 289 C -500 295 -489 292 -484 309 C -494 303 -513 302 -514 289 Z" style="fill: rgb(73, 29, 91);"/>
<path d="M -524 305 C -508 301 -500 292 -474 293 C -491 298 -502 308 -524 305 Z" style="fill: rgb(73, 29, 91);"/>
<path d="M -528 296 C -509 299 -493 295 -470 302 C -489 301 -501 308 -528 296 Z" style="fill: rgb(73, 29, 91);"/>
<path d="M -502 311 C -508 301 -498 299 -500 287 C -497 295 -487 301 -502 311 Z" style="fill: rgb(73, 29, 91);"/>
<path d="M -508 299 C -506 274 -479 231 -469 252 L -478 254 L -469 256 C -465 261 -498 254 -490 299 C -492 303 -510 303 -508 299 Z" style="fill: rgb(255, 58, 104);"/>
<rect y="330" width="100" height="100" style="fill: rgb(89, 36, 110);" x="-550"/>
<ellipse style="fill: rgb(144, 58, 178);" cx="-499" cy="410" rx="31" ry="13"/>
<path d="M -514 399 C -506 407 -498 407 -484 419 C -494 413 -504 411 -514 399 Z" style="fill: rgb(73, 29, 91);"/>
<path d="M -524 415 C -507 415 -500 406 -474 403 C -491 408 -502 416 -524 415 Z" style="fill: rgb(73, 29, 91);"/>
<path d="M -528 406 C -510 411 -499 407 -470 412 C -489 411 -501 414 -528 406 Z" style="fill: rgb(73, 29, 91);"/>
<path d="M -502 421 C -500 411 -498 409 -500 397 C -497 405 -495 407 -502 421 Z" style="fill: rgb(73, 29, 91);"/>
<rect y="330" width="100" height="100" style="fill: rgb(89, 36, 110);" x="-660"/>
<ellipse style="fill: rgb(73, 29, 91);" cx="-609" cy="410" rx="31" ry="13"/>
<path d="M -624 399 C -616 407 -608 407 -594 419 C -604 413 -614 411 -624 399 Z" style="fill: rgb(53, 21, 66);"/>
<path d="M -634 415 C -617 415 -610 406 -584 403 C -601 408 -612 416 -634 415 Z" style="fill: rgb(53, 21, 66);"/>
<path d="M -638 406 C -620 411 -609 407 -580 412 C -599 411 -611 414 -638 406 Z" style="fill: rgb(53, 21, 66);"/>
<path d="M -612 421 C -610 411 -608 409 -610 397 C -607 405 -605 407 -612 421 Z" style="fill: rgb(53, 21, 66);"/>
<rect y="220" width="100" height="100" style="fill: rgb(89, 36, 110);" x="-660"/>
<ellipse style="fill: rgb(73, 29, 91);" cx="-609" cy="300" rx="31" ry="13"/>
<path d="M -624 289 C -610 295 -599 292 -594 309 C -604 303 -623 302 -624 289 Z" style="fill: rgb(53, 21, 66);"/>
<path d="M -634 305 C -618 301 -610 292 -584 293 C -601 298 -612 308 -634 305 Z" style="fill: rgb(53, 21, 66);"/>
<path d="M -638 296 C -619 299 -603 295 -580 302 C -599 301 -611 308 -638 296 Z" style="fill: rgb(53, 21, 66);"/>
<path d="M -612 311 C -618 301 -608 299 -610 287 C -607 295 -597 301 -612 311 Z" style="fill: rgb(53, 21, 66);"/>
<path d="M -618 299 C -616 274 -592 238 -578 252 L -585 254 L -579 256 C -575 261 -596 256 -600 299 C -602 303 -620 303 -618 299 Z" style="fill: rgb(255, 58, 104);"/>
<rect y="110" width="100" height="100" style="fill: rgb(89, 36, 110);" x="-550"/>
<ellipse style="fill: rgb(144, 58, 178);" cx="-499" cy="190" rx="31" ry="13"/>
<path d="M -514 179 C -500 185 -489 182 -484 199 C -494 193 -513 192 -514 179 Z" style="fill: rgb(73, 29, 91);"/>
<path d="M -524 195 C -508 191 -500 182 -474 183 C -491 188 -502 198 -524 195 Z" style="fill: rgb(73, 29, 91);"/>
<path d="M -528 186 C -509 189 -493 185 -470 192 C -489 191 -501 198 -528 186 Z" style="fill: rgb(73, 29, 91);"/>
<path d="M -502 201 C -508 191 -498 189 -500 177 C -497 185 -487 191 -502 201 Z" style="fill: rgb(73, 29, 91);"/>
<path d="M -508 189 C -506 164 -457 140 -457 154 L -464 156 L -458 156 C -454 164 -486 146 -490 189 C -492 193 -510 193 -508 189 Z" style="fill: rgb(255, 58, 104);"/>
<rect y="110" width="100" height="100" style="fill: rgb(89, 36, 110);" x="-660"/>
<ellipse style="fill: rgb(73, 29, 91);" cx="-609" cy="190" rx="31" ry="13"/>
<path d="M -624 179 C -610 185 -599 182 -594 199 C -604 193 -623 192 -624 179 Z" style="fill: rgb(53, 21, 66);"/>
<path d="M -634 195 C -618 191 -610 182 -584 183 C -601 188 -612 198 -634 195 Z" style="fill: rgb(53, 21, 66);"/>
<path d="M -638 186 C -619 189 -603 185 -580 192 C -599 191 -611 198 -638 186 Z" style="fill: rgb(53, 21, 66);"/>
<path d="M -612 201 C -618 191 -608 189 -610 177 C -607 185 -597 191 -612 201 Z" style="fill: rgb(53, 21, 66);"/>
<rect y="440" width="100" height="100" style="fill: rgb(89, 36, 110);" x="-550"/>
<ellipse style="fill: rgb(144, 58, 178);" cx="-499" cy="520" rx="31" ry="13"/>
<path d="M -500 507 C -498 512 -497 515 -497 518 C -491 516 -484 514 -474 513 C -480 515 -488 517 -493 519 C -487 520 -478 521 -470 522 C -478 521 -485 522 -493 522 C -491 524 -487 526 -484 529 C -489 526 -493 524 -498 522 C -499 524 -500 527 -502 531 C -501 528 -500 525 -500 522 C -507 524 -514 525 -524 525 C -516 525 -511 523 -504 521 C -509 520 -516 519 -524 516 C -515 517 -510 519 -503 519 C -507 517 -510 513 -514 509 C -509 514 -505 516 -499 519 C -499 516 -499 513 -500 507 Z" style="fill: rgb(73, 29, 91);"/>
<ellipse style="fill-opacity: 0.2;" cx="50" cy="531" rx="29" ry="4"/>
<path d="M 32 531 C 43 511 27 496 25 480 L 37 500 L 28 473 L 38 490 L 34 467 L 40 485 L 38 464 L 44 487 L 44 462 L 50 485 L 50 462 L 54 489 L 57 463 L 58 482 L 64 467 L 60 495 L 67 476 L 62 500 L 73 482 C 68 504 55 515 67 531 C 62 533 34 534 32 531 Z" style="fill: rgb(144, 58, 178);"/>
<rect y="770" width="100" height="100" style="fill: rgb(89, 36, 110);"/>
<ellipse style="fill-opacity: 0.2;" cx="50" cy="861" rx="29" ry="4"/>
<path d="M 36 860 C 45 840 33 856 32 839 C 24 837 31 824 36 831 C 33 828 38 815 45 822 C 43 819 55 812 60 821 C 63 812 77 820 71 829 C 73 828 79 837 70 840 C 75 849 60 847 65 860 C 59 863 37 863 36 860 Z" style="fill: rgb(144, 58, 178);"/>
<g/>
<g/>
<g/>
<rect y="660" width="100" height="100" style="fill: rgb(89, 36, 110);" x="110"/>
<ellipse style="fill-opacity: 0.2;" cx="159" cy="753" rx="11" ry="3"/>
<path d="M 148 726 C 142 719 144 681 167 698" style="fill: none; stroke: rgb(192, 220, 203);"/>
<path d="M 154 723 C 166 723 168 753 154 753 C 140 753 142 723 154 723 Z" style="fill: rgb(223, 255, 235);" transform="matrix(0.93742, -0.348202, 0.348202, 0.93742, -247.335516, 99.807393)"/>
<path style="fill: rgb(175, 70, 216);" d="M 148 726 C 138 725 141 716 134 715 C 140 712 150 719 148 726 Z"/>
<path d="M 152 727 C 154 724 161 731 159 734 C 157 737 150 730 152 727 Z" style="fill: rgb(192, 220, 203);"/>
<path d="M 167 698 C 169 697 172 702 172 705 C 170 702 165 700 167 698 Z" style="fill: rgb(223, 255, 235);"/>
<path d="M 167 698 C 166 696 160 699 159 701 C 162 701 168 700 167 698 Z" style="fill: rgb(223, 255, 235);"/>
<path d="M 166 698 C 165 696 170 694 173 694 C 170 696 168 701 166 698 Z" style="fill: rgb(223, 255, 235);"/>
</svg>