<?xml version="1.0" encoding="utf-8"?>
<svg viewBox="0 0 100 100" width="100px" height="100px" xmlns="http://www.w3.org/2000/svg" xmlns:bx="https://boxy-svg.com">
<rect x="220" width="100" height="100" style="fill: rgb(53, 21, 66);"/>
<rect x="245" width="10" height="10" style="fill: rgb(142, 193, 165);"/>
<rect width="25" height="25" style="fill: rgb(175, 70, 216);" x="220"/>
<rect y="25" width="25" height="25" style="fill: rgb(144, 58, 178);" x="220"/>
<rect x="245" y="10" width="10" height="10" style="fill: rgb(116, 158, 135);"/>
<rect y="50" width="25" height="25" style="fill: rgb(89, 36, 110);" x="220"/>
<rect x="255" width="10" height="10" style="fill: rgb(223, 255, 235);"/>
<rect width="100" height="100" style="fill: rgb(89, 36, 110);" x="110"/>
<rect width="100" height="100" style="fill: rgb(89, 36, 110);" x="-110"/>
<ellipse style="fill-opacity: 0.2;" cx="-59" cy="89" rx="22" ry="6"/>
<path d="M -84 94 L -79 87 C -76 84 -73 68 -74 59 C -88 -6 -32 -4 -45 58 C -47 69 -41 87 -39 88 L -34 94 L -44 90 C -43 86 -53 64 -51 64 C -53 64 -53 88 -50 89 L -48 95 L -56 89 C -54 89 -58 68 -60 68 C -61 68 -64 88 -62 89 L -69 94 L -68 89 C -65 89 -67 64 -68 64 C -67 64 -75 86 -74 89 L -84 94 Z" style="fill: rgb(142, 193, 165);"/>
<circle style="fill: rgb(223, 255, 235);" cy="26" r="8" cx="-60"/>
<path d="M -54 26 C -54 29 -57 32 -60 32 C -63 32 -66 29 -66 26 C -66 23 -63 20 -60 20 C -59 20 -58 20 -57 21 C -56 21 -60 25 -60 26 C -59 26 -55 23 -55 23 C -54 24 -54 25 -54 26 Z" style=""/>
<path d="M -71 43 L -68 53 L -67 46 L -65 51 L -62 45 L -60 52 L -57 45 L -54 52 L -53 44 L -50 52 L -48 42 C -48 38 -71 39 -71 43 Z" style="fill: rgb(223, 255, 235);"/>
<rect y="75" width="25" height="25" style="fill: rgb(73, 29, 91);" x="220"/>
<rect width="100" height="100" style="fill: rgb(89, 36, 110);" x="330"/>
<circle style="fill: rgb(73, 29, 91);" cx="373" cy="29" r="22"/>
<circle style="fill: rgb(73, 29, 91);" cy="74" r="9" cx="356"/>
<circle style="fill: rgb(73, 29, 91);" cx="391" cy="81" r="13"/>
<circle style="fill: rgb(73, 29, 91);" cx="412" cy="25" r="6"/>
<rect y="110" width="100" height="100" style="fill: rgb(89, 36, 110);" x="330"/>
<circle style="fill: rgb(73, 29, 91);" cx="351" cy="138" r="12"/>
<circle style="fill: rgb(73, 29, 91);" cx="399" cy="180" r="13"/>
<circle style="fill: rgb(73, 29, 91);" cy="177" r="9" cx="364"/>
<circle style="fill: rgb(73, 29, 91);" cx="373" cy="153" r="6"/>
<rect y="220" width="100" height="100" style="fill: rgb(89, 36, 110);" x="330"/>
<circle style="fill: rgb(73, 29, 91);" cx="357" cy="249" r="9"/>
<circle style="fill: rgb(73, 29, 91);" cx="402" cy="260" r="13"/>
<circle style="fill: rgb(73, 29, 91);" cy="287" r="16" cx="364"/>
<circle style="fill: rgb(73, 29, 91);" cx="391" cy="297" r="6"/>
<rect y="330" width="100" height="100" style="fill: rgb(89, 36, 110);" x="330"/>
<path d="M 355 340 C 373 352 399 353 426 377 C 407 365 382 358 355 340 Z" style="fill: rgb(73, 29, 91);"/>
<path d="M 344 349 C 364 368 383 369 416 399 C 393 383 369 380 344 349 Z" style="fill: rgb(73, 29, 91);"/>
<path d="M 335 353 C 350 377 367 384 393 420 C 374 399 352 389 335 353 Z" style="fill: rgb(73, 29, 91);"/>
<rect y="440" width="100" height="100" style="fill: rgb(89, 36, 110);" x="330"/>
<path d="M 338 510 C 353 489 352 465 383 447 C 369 467 365 494 338 510 Z" style="fill: rgb(73, 29, 91);"/>
<path d="M 344 523 C 366 503 369 482 408 461 C 387 481 379 504 344 523 Z" style="fill: rgb(73, 29, 91);"/>
<path d="M 348 532 C 373 517 382 499 424 488 C 400 502 386 522 348 532 Z" style="fill: rgb(73, 29, 91);"/>
<rect width="100" height="100" style="fill: rgb(89, 36, 110);" x="-110" y="110"/>
<ellipse style="fill-opacity: 0.2;" cx="-59" cy="199" rx="28" ry="6"/>
<path d="M -84 204 L -79 197 C -76 194 -73 178 -74 169 C -95 104 -36 105 -45 168 C -47 179 -36 193 -34 194 L -29 200 L -39 196 C -38 192 -52 178 -50 178 C -52 178 -55 198 -52 199 L -50 205 L -58 199 C -56 199 -56 176 -58 176 C -59 176 -64 198 -62 199 L -69 204 L -68 199 C -65 199 -67 174 -68 174 C -67 174 -75 196 -74 199 L -84 204 Z" style="fill: rgb(142, 193, 165);"/>
<circle style="fill: rgb(223, 255, 235);" cy="136" r="8" cx="-61"/>
<path d="M -55 136 C -55 139 -58 142 -61 142 C -64 142 -67 139 -67 136 C -67 133 -64 130 -61 130 C -60 130 -59 130 -58 131 C -57 131 -61 135 -61 136 C -60 136 -56 133 -56 133 C -55 134 -55 135 -55 136 Z" style=""/>
<path d="M -71 153 L -68 163 L -67 156 L -65 161 L -62 155 L -60 162 L -57 155 L -54 162 L -53 154 L -50 162 L -48 152 C -48 148 -71 149 -71 153 Z" style="fill: rgb(223, 255, 235);"/>
<rect y="110" width="100" height="100" style="fill: rgb(89, 36, 110);" x="110"/>
<ellipse style="fill-opacity: 0.2;" cx="159" cy="203" rx="23" ry="3"/>
<ellipse style="fill: rgb(223, 255, 235);" cx="159" cy="186" rx="10" ry="15"/>
<path style="fill: rgb(175, 70, 216);" d="M 158 204 C 139 203 144 184 129 181 C 142 175 162 190 158 204 Z"/>
<rect y="220" width="100" height="100" style="fill: rgb(89, 36, 110);" x="110"/>
<ellipse style="fill-opacity: 0.2;" cx="160" cy="313" rx="25" ry="3"/>
<path d="M 158 311 C 158 304 159 287 153 268 C 158 275 160 283 161 289 C 164 285 169 282 175 283 C 168 287 171 294 162 294 C 162 300 159 312 158 311 Z" style="fill: rgb(144, 58, 178);"/>
<ellipse style="fill-opacity: 0.2;" cx="160" cy="93" rx="17" ry="3"/>
<path d="M 149 89 L 142 46 L 152 77 L 148 30 L 157 78 L 157 33 L 161 83 L 166 35 L 166 78 L 178 33 L 171 91 C 170 95 148 95 149 89 Z" style="fill: rgb(175, 70, 216);"/>
<path d="M 165 178 C 166 181 166 183 165 184 C 163 185 161 183 160 181 C 159 178 159 176 160 175 C 162 174 164 176 165 178 Z" style="fill: rgb(192, 220, 203);"/>
<path d="M 158 204 C 156 189 183 177 189 187 C 175 185 176 204 158 204 Z" style="fill: rgb(144, 58, 178);"/>
<path style="fill: rgb(144, 58, 178);" d="M 159 314 C 178 313 172 298 187 295 C 174 289 155 300 159 314 Z"/>
<path d="M 160 314 C 162 299 142 286 129 297 C 143 295 142 314 160 314 Z" style="fill: rgb(175, 70, 216);"/>
<rect width="100" height="100" style="fill: rgb(89, 36, 110);" x="-110" y="220"/>
<ellipse style="fill-opacity: 0.2;" cx="-59" cy="309" rx="28" ry="6"/>
<path d="M -78 312 L -73 305 C -70 302 -73 288 -74 279 C -99 215 -37 215 -45 278 C -47 289 -44 303 -42 304 L -37 310 L -47 306 C -46 302 -53 284 -51 284 C -53 284 -41 297 -38 298 L -36 304 L -44 300 C -42 300 -56 286 -58 286 C -59 286 -63 307 -61 308 L -68 313 L -67 308 C -64 308 -67 284 -68 284 C -67 284 -69 304 -68 307 L -78 312 Z" style="fill: rgb(142, 193, 165);"/>
<circle style="fill: rgb(223, 255, 235);" cy="246" r="8" cx="-62"/>
<path d="M -56 246 C -56 249 -59 252 -62 252 C -65 252 -68 249 -68 246 C -68 243 -65 240 -62 240 C -61 240 -60 240 -59 241 C -58 241 -62 245 -62 246 C -61 246 -57 243 -57 243 C -56 244 -56 245 -56 246 Z" style=""/>
<path d="M -71 263 L -68 273 L -67 266 L -65 271 L -62 265 L -60 272 L -57 265 L -54 272 L -53 264 L -50 272 L -48 262 C -48 258 -71 259 -71 263 Z" style="fill: rgb(223, 255, 235);"/>
<path d="M 159 172 C 160 165 156 155 162 144" style="fill: none; stroke: rgb(192, 220, 203);"/>
<path d="M 162 144 C 164 143 167 148 167 151 C 165 148 160 146 162 144 Z" style="fill: rgb(223, 255, 235);"/>
<path d="M 162 144 C 161 142 155 145 154 147 C 157 147 163 146 162 144 Z" style="fill: rgb(223, 255, 235);"/>
<path d="M 151 267 C 148 260 139 263 137 270 C 144 266 153 273 151 267 Z" style="fill: rgb(223, 255, 235);"/>
<path d="M 155 267 C 155 260 170 261 170 270 C 161 266 155 275 155 267 Z" style="fill: rgb(223, 255, 235);"/>
<path d="M 153 268 C 144 268 146 277 149 281 C 156 277 162 268 153 268 Z" style="fill: rgb(223, 255, 235);"/>
<path d="M 152 265 C 145 265 153 256 160 260 C 163 262 159 265 152 265 Z" style="fill: rgb(223, 255, 235);"/>
<ellipse style="fill: rgb(192, 220, 203);" cx="154" cy="266" rx="5" ry="3"/>
<rect width="100" height="100" style="fill: rgb(89, 36, 110);" x="-330"/>
<ellipse style="fill-opacity: 0.2;" cx="-279" cy="89" rx="22" ry="6"/>
<path d="M -256 45 C -256 56 -256 70 -280 70 C -303 70 -304 56 -304 45 C -304 34 -304 25 -280 25 C -256 25 -256 34 -256 45 Z" style="fill: rgb(245, 245, 245);"/>
<path d="M -260 45 C -260 55 -260 63 -280 63 C -300 63 -300 55 -300 45 C -300 36 -300 28 -280 28 C -260 28 -260 36 -260 45 Z" style="fill: rgb(44, 56, 95);"/>
<circle style="fill: rgb(117, 152, 255);" cx="-289" cy="41" r="4"/>
<circle style="fill: rgb(117, 152, 255);" cx="-272" cy="41" r="4"/>
<path d="M -289 52 C -289 56 -271 56 -271 52" style="stroke: rgb(117, 152, 255); stroke-width: 3px; fill: none;"/>
<rect y="330" width="100" height="100" style="fill: rgb(89, 36, 110);" x="110"/>
<rect y="550" width="100" height="100" style="fill: rgb(89, 36, 110);" x="330"/>
<path d="M 344 623 C 366 603 369 582 408 561 C 387 581 379 604 344 623 Z" style="fill: rgb(73, 29, 91);"/>
<path d="M 351 640 C 371 632 386 610 420 601 C 400 610 380 627 351 640 Z" style="fill: rgb(73, 29, 91);"/>
<rect width="100" height="100" style="fill: rgb(89, 36, 110);" x="-440"/>
<ellipse style="fill-opacity: 0.2;" cx="-389" cy="89" rx="22" ry="6"/>
<path d="M -373 56 C -373 64 -373 74 -390 74 C -406 74 -407 64 -407 56 C -407 48 -407 41 -390 41 C -373 41 -373 48 -373 56 Z" style="fill: rgb(245, 245, 245);"/>
<path d="M -376 56 C -376 63 -376 69 -390 69 C -404 69 -404 63 -404 56 C -404 49 -404 44 -390 44 C -376 44 -376 49 -376 56 Z" style="fill: rgb(44, 56, 95);"/>
<circle style="fill: rgb(117, 152, 255);" cx="-396" cy="53" r="3"/>
<circle style="fill: rgb(117, 152, 255);" cx="-384" cy="53" r="3"/>
<path d="M -396 61 C -396 64 -384 64 -384 61" style="stroke: rgb(117, 152, 255); stroke-width: 3px; fill: none;"/>
<rect y="440" width="100" height="100" style="fill: rgb(89, 36, 110);" x="110"/>
<ellipse style="fill-opacity: 0.2;" cx="160" cy="531" rx="29" ry="4"/>
<path d="M 142 531 C 144 531 153 520 150 515 C 144 513 135 481 135 480 L 147 500 L 138 473 L 148 490 L 144 467 L 150 485 L 148 464 L 154 487 L 154 462 L 160 485 L 160 462 L 164 489 L 167 463 L 168 482 L 174 467 L 170 495 L 177 476 L 172 500 L 183 482 C 183 483 173 512 167 515 C 165 521 174 529 177 529 C 174 534 144 534 142 531 Z" style="fill: rgb(144, 58, 178);"/>
<rect y="440" width="100" height="100" style="fill: rgb(89, 36, 110);" x="220"/>
<ellipse style="fill-opacity: 0.2;" cx="270" cy="531" rx="36" ry="4"/>
<polygon style="fill: rgb(144, 58, 178);" points="243 531 252 514 232 477 239 480 236 470 252 488 245 463 251 472 251 461 261 485 262 459 266 471 270 458 272 486 281 459 282 471 290 463 284 492 297 473 296 484 306 480 285 513 298 531"/>
<rect y="550" width="100" height="100" style="fill: rgb(89, 36, 110);" x="110"/>
<ellipse style="fill-opacity: 0.2;" cx="159" cy="643" rx="11" ry="3"/>
<path d="M 148 616 C 142 609 144 571 167 588" style="fill: none; stroke: rgb(192, 220, 203);"/>
<path d="M 171 621 C 179 625 170 646 161 642 C 151 637 162 617 171 621 Z" style="fill: rgb(192, 220, 203);"/>
<path d="M 154 613 C 166 613 168 643 154 643 C 140 643 142 613 154 613 Z" style="fill: rgb(223, 255, 235);" transform="matrix(0.93742, -0.348202, 0.348202, 0.93742, -209.033323, 92.923551)"/>
<path style="fill: rgb(175, 70, 216);" d="M 148 616 C 138 615 141 606 134 605 C 140 602 150 609 148 616 Z"/>
<path d="M 152 617 C 154 614 161 621 159 624 C 157 627 150 620 152 617 Z" style="fill: rgb(192, 220, 203);"/>
<path d="M 167 588 C 169 587 172 592 172 595 C 170 592 165 590 167 588 Z" style="fill: rgb(223, 255, 235);"/>
<path d="M 167 588 C 166 586 160 589 159 591 C 162 591 168 590 167 588 Z" style="fill: rgb(223, 255, 235);"/>
<path d="M 166 588 C 165 586 170 584 173 584 C 170 586 168 591 166 588 Z" style="fill: rgb(223, 255, 235);"/>
<rect y="550" width="100" height="100" style="fill: rgb(89, 36, 110);" x="220"/>
<ellipse style="fill-opacity: 0.2;" cx="269" cy="643" rx="8" ry="3"/>
<ellipse style="fill: rgb(223, 255, 235);" cx="269" cy="634" rx="7" ry="10"/>
<path d="M 274 629 C 275 632 275 634 274 635 C 272 636 270 634 269 632 C 268 629 268 627 269 626 C 271 625 273 627 274 629 Z" style="fill: rgb(192, 220, 203);"/>
<path d="M 269 625 C 270 618 266 608 272 597" style="fill: none; stroke: rgb(192, 220, 203);"/>
<path style="fill: rgb(175, 70, 216);" d="M 269 625 C 259 624 262 615 255 614 C 261 611 271 618 269 625 Z"/>
<path d="M 272 597 C 274 596 277 601 277 604 C 275 601 270 599 272 597 Z" style="fill: rgb(223, 255, 235);"/>
<path d="M 272 597 C 271 595 265 598 264 600 C 267 600 273 599 272 597 Z" style="fill: rgb(223, 255, 235);"/>
<path d="M 271 597 C 270 595 275 593 278 593 C 275 595 273 600 271 597 Z" style="fill: rgb(223, 255, 235);"/>
<polygon style="fill: rgb(206, 206, 206);" points="-398 72 -402 79 -399 87 -402 91 -396 88 -399 80 -394 73"/>
<polygon style="fill: rgb(206, 206, 206);" points="-381 91 -385 84 -382 76 -385 72 -379 75 -382 83 -377 90" transform="matrix(-1, 0, 0, -1, -762, 163)"/>
<rect width="100" height="100" style="fill: rgb(89, 36, 110);" x="-550"/>
<ellipse style="fill-opacity: 0.2;" cx="-499" cy="89" rx="22" ry="6"/>
<path d="M -483 46 C -483 54 -483 64 -500 64 C -516 64 -517 54 -517 46 C -517 38 -517 31 -500 31 C -483 31 -483 38 -483 46 Z" style="fill: rgb(245, 245, 245);"/>
<path d="M -486 46 C -486 53 -486 59 -500 59 C -514 59 -514 53 -514 46 C -514 39 -514 34 -500 34 C -486 34 -486 39 -486 46 Z" style="fill: rgb(44, 56, 95);"/>
<circle style="fill: rgb(117, 152, 255);" cx="-506" cy="43" r="3"/>
<circle style="fill: rgb(117, 152, 255);" cx="-494" cy="43" r="3"/>
<path d="M -506 51 C -506 54 -494 54 -494 51" style="stroke: rgb(117, 152, 255); stroke-width: 3px; fill: none;"/>
<path d="M -297 76 L -295 81 L -290 81 L -291 76 L -286 68 L -295 65 L -297 76 Z" style="fill: rgb(206, 206, 206);"/>
<path d="M -296 85 C -306 93 -297 97 -287 86 L -290 79 C -290 81 -296 81 -296 79 L -296 85 Z" style="fill: rgb(245, 245, 245);"/>
<path d="M -272 70 L -270 65 L -265 65 L -266 70 L -261 78 L -270 81 L -272 70 Z" style="fill: rgb(206, 206, 206);" transform="matrix(-1, 0, 0, -1, -533, 146)"/>
<path d="M -266 86 C -276 78 -268 75 -258 86 L -260 93 C -260 91 -266 91 -266 93 L -266 86 Z" style="fill: rgb(245, 245, 245);" transform="matrix(-1, 0, 0, -1, -528.59552, 171.831131)"/>
<path d="M -315 57 L -312 70 L -308 66 L -309 58 L -303 51 L -303 40 L -315 57 Z" style="fill: rgb(206, 206, 206);"/>
<path d="M -257 53 L -254 40 L -250 44 L -251 52 L -245 59 L -245 70 L -257 53 Z" style="fill: rgb(206, 206, 206);" transform="matrix(-1, 0, 0, -1, -502, 110)"/>
<path d="M -251 66 L -248 66 L -252 71 L -248 71 L -253 76 L -257 72 L -251 66 Z" style="fill: rgb(245, 245, 245);" transform="matrix(-1, 0, 0, -1, -505, 142)"/>
<path d="M -306 76 L -303 76 L -307 71 L -303 71 L -308 66 L -312 70 L -306 76 Z" style="fill: rgb(245, 245, 245);"/>
<polygon style="fill: rgb(206, 206, 206);" points="-406 52 -414 63 -411 76 -406 78 -410 73 -411 64 -406 58"/>
<polygon style="fill: rgb(206, 206, 206);" points="-366 78 -374 67 -371 54 -366 52 -370 57 -371 66 -366 72" transform="matrix(-1, 0, 0, -1, -740, 130)"/>
<path d="M -515 72 C -517 72 -517 77 -515 77 L -512 85 C -513 85 -513 88 -512 88 L -517 93 L -510 95 L -508 88 C -507 88 -507 85 -508 85 L -511 77 C -509 77 -509 72 -511 72 L -507 63 C -506 61 -512 59 -512 60 L -515 72 Z" style="fill: rgb(206, 206, 206);"/>
<path d="M -490 83 C -492 83 -492 78 -490 78 L -487 70 C -488 70 -488 67 -487 67 L -492 62 L -485 60 L -483 67 C -482 67 -482 70 -483 70 L -486 78 C -484 78 -484 83 -486 83 L -482 92 C -481 94 -487 96 -487 95 L -490 83 Z" style="fill: rgb(206, 206, 206);" transform="matrix(-1, 0, 0, -1, -973.887573, 155.265984)"/>
<path d="M -527 59 C -529 59 -529 64 -527 64 L -527 72 C -528 72 -528 75 -527 75 C -527 79 -524 82 -522 81 C -522 80 -524 80 -523 79 C -522 78 -521 79 -521 79 C -519 77 -524 76 -524 75 C -523 75 -523 72 -524 72 L -523 64 C -521 64 -521 59 -523 59 L -516 54 C -515 54 -515 48 -516 48 L -527 59 Z" style="fill: rgb(206, 206, 206);"/>
<path d="M -483 70 C -485 70 -485 65 -483 65 L -483 57 C -484 57 -484 54 -483 54 C -483 50 -480 47 -478 48 C -478 49 -480 49 -479 50 C -478 51 -477 50 -477 50 C -475 52 -480 53 -480 54 C -479 54 -479 57 -480 57 L -479 65 C -477 65 -477 70 -479 70 L -472 75 C -471 75 -471 81 -472 81 L -483 70 Z" style="fill: rgb(206, 206, 206);" transform="matrix(-1, 0, 0, -1, -955.75, 128.806183)"/>
<rect width="100" height="100" style="fill: rgb(89, 36, 110);" x="-550" y="-110"/>
<ellipse style="fill-opacity: 0.2;" cx="-499" cy="-21" rx="22" ry="6"/>
<path d="M -483 -64 C -483 -56 -483 -46 -500 -46 C -516 -46 -517 -56 -517 -64 C -517 -72 -517 -79 -500 -79 C -483 -79 -483 -72 -483 -64 Z" style="fill: rgb(245, 245, 245);"/>
<path d="M -486 -64 C -486 -57 -486 -51 -500 -51 C -514 -51 -514 -57 -514 -64 C -514 -71 -514 -76 -500 -76 C -486 -76 -486 -71 -486 -64 Z" style="fill: rgb(44, 56, 95);"/>
<circle style="fill: rgb(117, 152, 255);" cx="-506" cy="-67" r="3"/>
<circle style="fill: rgb(117, 152, 255);" cx="-494" cy="-67" r="3"/>
<path d="M -506 -59 C -506 -56 -494 -56 -494 -59" style="stroke: rgb(117, 152, 255); stroke-width: 3px; fill: none;"/>
<path d="M -515 -35 C -517 -35 -517 -28 -515 -28 L -512 -18 C -513 -18 -513 -14 -512 -14 L -517 -8 L -510 -5 L -508 -14 C -507 -14 -507 -18 -508 -18 L -511 -28 C -509 -28 -509 -35 -511 -35 L -507 -46 C -506 -49 -512 -51 -512 -50 L -515 -35 Z" style="fill: rgb(206, 206, 206);"/>
<path d="M -490 -34 C -492 -34 -492 -37 -490 -37 L -487 -43 C -488 -43 -488 -45 -487 -45 L -492 -49 L -485 -50 L -483 -45 C -482 -45 -482 -43 -483 -43 L -486 -37 C -484 -37 -484 -34 -486 -34 L -482 -27 C -481 -26 -487 -24 -487 -25 L -490 -34 Z" style="fill: rgb(206, 206, 206);" transform="matrix(-1, 0, 0, -1, -973.887573, -74.727457)"/>
<path d="M -527 -51 C -529 -51 -529 -46 -527 -46 L -527 -38 C -528 -38 -528 -35 -527 -35 C -527 -31 -524 -28 -522 -29 C -522 -30 -524 -30 -523 -31 C -522 -32 -521 -31 -521 -31 C -519 -33 -524 -34 -524 -35 C -523 -35 -523 -38 -524 -38 L -523 -46 C -521 -46 -521 -51 -523 -51 L -516 -56 C -515 -56 -515 -62 -516 -62 L -527 -51 Z" style="fill: rgb(206, 206, 206);"/>
<path d="M -483 -40 C -485 -40 -485 -45 -483 -45 L -483 -53 C -484 -53 -484 -56 -483 -56 C -483 -60 -480 -63 -478 -62 C -478 -61 -480 -61 -479 -60 C -478 -59 -477 -60 -477 -60 C -475 -58 -480 -57 -480 -56 C -479 -56 -479 -53 -480 -53 L -479 -45 C -477 -45 -477 -40 -479 -40 L -472 -35 C -471 -35 -471 -29 -472 -29 L -483 -40 Z" style="fill: rgb(206, 206, 206);" transform="matrix(-1, 0, 0, -1, -955.75, -91.193817)"/>
<rect width="100" height="100" style="fill: rgb(89, 36, 110);" x="-550" y="-220"/>
<ellipse style="fill-opacity: 0.2;" cx="-499" cy="-131" rx="22" ry="6"/>
<path d="M -525 -165 C -527 -165 -527 -161 -525 -161 L -525 -154 C -526 -154 -526 -152 -525 -152 C -525 -149 -523 -146 -521 -147 C -521 -148 -523 -148 -522 -149 C -521 -149 -520 -149 -520 -149 C -519 -150 -523 -151 -523 -152 C -522 -152 -522 -154 -523 -154 L -522 -161 C -520 -161 -520 -165 -522 -165 L -516 -172 C -515 -172 -515 -179 -516 -179 L -525 -165 Z" style="fill: rgb(206, 206, 206);"/>
<path d="M -483 -174 C -483 -166 -483 -156 -500 -156 C -516 -156 -517 -166 -517 -174 C -517 -182 -517 -189 -500 -189 C -483 -189 -483 -182 -483 -174 Z" style="fill: rgb(245, 245, 245);"/>
<path d="M -486 -174 C -486 -167 -486 -161 -500 -161 C -514 -161 -514 -167 -514 -174 C -514 -181 -514 -186 -500 -186 C -486 -186 -486 -181 -486 -174 Z" style="fill: rgb(44, 56, 95);"/>
<circle style="fill: rgb(117, 152, 255);" cx="-506" cy="-177" r="3"/>
<circle style="fill: rgb(117, 152, 255);" cx="-494" cy="-177" r="3"/>
<path d="M -506 -169 C -506 -166 -494 -166 -494 -169" style="stroke: rgb(117, 152, 255); stroke-width: 3px; fill: none;"/>
<path d="M -515 -145 C -517 -145 -517 -138 -515 -138 L -512 -128 C -513 -128 -513 -124 -512 -124 L -517 -118 L -510 -115 L -508 -124 C -507 -124 -507 -128 -508 -128 L -511 -138 C -509 -138 -509 -145 -511 -145 L -507 -156 C -506 -159 -512 -161 -512 -160 L -515 -145 Z" style="fill: rgb(206, 206, 206);"/>
<path d="M -490 -144 C -492 -144 -492 -147 -490 -147 L -487 -153 C -488 -153 -488 -155 -487 -155 L -492 -159 L -485 -160 L -483 -155 C -482 -155 -482 -153 -483 -153 L -486 -147 C -484 -147 -484 -144 -486 -144 L -482 -137 C -481 -136 -487 -134 -487 -135 L -490 -144 Z" style="fill: rgb(206, 206, 206);" transform="matrix(-1, 0, 0, -1, -973.887573, -294.727463)"/>
<path d="M -483 -154 C -485 -154 -485 -160 -483 -160 L -483 -169 C -484 -169 -484 -173 -483 -173 C -483 -178 -479 -181 -477 -180 C -477 -179 -479 -179 -478 -178 C -477 -176 -476 -178 -476 -178 C -474 -175 -479 -174 -479 -173 C -478 -173 -478 -169 -479 -169 L -478 -160 C -476 -160 -476 -154 -478 -154 L -470 -148 C -469 -148 -469 -141 -470 -141 L -483 -154 Z" style="fill: rgb(206, 206, 206);" transform="matrix(-1, 0, 0, -1, -953.75, -321.191605)"/>
<rect width="100" height="100" style="fill: rgb(89, 36, 110);" x="-660"/>
<ellipse style="fill-opacity: 0.2;" cx="-609" cy="89" rx="22" ry="6"/>
<path d="M -593 55 C -593 63 -593 73 -610 73 C -626 73 -627 63 -627 55 C -627 47 -627 40 -610 40 C -593 40 -593 47 -593 55 Z" style="fill: rgb(245, 245, 245);"/>
<path d="M -596 55 C -596 62 -596 68 -610 68 C -624 68 -624 62 -624 55 C -624 48 -624 43 -610 43 C -596 43 -596 48 -596 55 Z" style="fill: rgb(44, 56, 95);"/>
<circle style="fill: rgb(117, 152, 255);" cx="-616" cy="52" r="3"/>
<circle style="fill: rgb(117, 152, 255);" cx="-604" cy="52" r="3"/>
<path d="M -616 60 C -616 63 -604 63 -604 60" style="stroke: rgb(117, 152, 255); stroke-width: 3px; fill: none;"/>
<path d="M -625 78 C -627 78 -627 81 -625 81 L -622 87 C -623 87 -623 90 -622 90 L -627 93 L -620 95 L -618 90 C -617 90 -617 87 -618 87 L -621 81 C -619 81 -619 78 -621 78 L -617 71 C -616 69 -622 68 -622 69 L -625 78 Z" style="fill: rgb(206, 206, 206);"/>
<path d="M -594 78 C -592 78 -592 81 -594 81 L -597 87 C -596 87 -596 90 -597 90 L -592 93 L -599 95 L -601 90 C -602 90 -602 87 -601 87 L -598 81 C -600 81 -600 78 -598 78 L -602 71 C -603 69 -597 68 -597 69 L -594 78 Z" style="fill: rgb(206, 206, 206);"/>
<path d="M -637 63 C -639 63 -639 67 -637 67 L -637 73 C -638 73 -638 76 -637 76 C -637 79 -634 81 -632 81 C -632 80 -634 80 -633 79 C -632 78 -631 79 -631 79 C -629 77 -634 77 -634 76 C -633 76 -633 73 -634 73 L -633 67 C -631 67 -631 63 -633 63 L -626 59 C -625 59 -625 54 -626 54 L -637 63 Z" style="fill: rgb(206, 206, 206);"/>
<path d="M -583 63 C -581 63 -581 67 -583 67 L -583 73 C -582 73 -582 76 -583 76 C -583 79 -586 81 -588 81 C -588 80 -586 80 -587 79 C -588 78 -589 79 -589 79 C -591 77 -586 77 -586 76 C -587 76 -587 73 -586 73 L -587 67 C -589 67 -589 63 -587 63 L -594 59 C -595 59 -595 54 -594 54 L -583 63 Z" style="fill: rgb(206, 206, 206);"/>
<rect width="100" height="100" style="fill: rgb(89, 36, 110);" x="-770"/>
<ellipse style="fill-opacity: 0.2;" cx="-719" cy="92" rx="22" ry="4"/>
<path d="M -703 55 C -703 63 -703 73 -720 73 C -736 73 -737 63 -737 55 C -737 48 -737 41 -724 40 C -723 40 -723 36 -720 36 C -717 36 -717 40 -716 40 C -703 41 -703 48 -703 55 Z" style="fill: rgb(245, 245, 245);"/>
<path d="M -706 55 C -706 62 -706 68 -720 68 C -734 68 -734 62 -734 55 C -734 48 -734 43 -720 43 C -706 43 -706 48 -706 55 Z" style="fill: rgb(44, 56, 95);"/>
<circle style="fill: rgb(117, 152, 255);" cx="-726" cy="52" r="3"/>
<circle style="fill: rgb(117, 152, 255);" cx="-714" cy="52" r="3"/>
<path d="M -726 60 C -726 63 -714 63 -714 60" style="stroke: rgb(117, 152, 255); stroke-width: 3px; fill: none;"/>
<path d="M -735 78 C -737 78 -737 81 -735 81 L -732 87 C -733 87 -733 90 -732 90 L -737 93 C -738 95 -730 96 -730 95 L -728 90 C -727 90 -727 87 -728 87 L -731 81 C -729 81 -729 78 -731 78 L -727 71 C -726 69 -732 68 -732 69 L -735 78 Z" style="fill: rgb(245, 245, 245);"/>
<path d="M -704 78 C -702 78 -702 81 -704 81 L -707 87 C -706 87 -706 90 -707 90 L -702 93 C -701 95 -709 96 -709 95 L -711 90 C -712 90 -712 87 -711 87 L -708 81 C -710 81 -710 78 -708 78 L -712 71 C -713 69 -707 68 -707 69 L -704 78 Z" style="fill: rgb(245, 245, 245);"/>
<circle style="fill: rgb(255, 58, 104);" cx="-720" cy="39" r="1"/>
<rect width="100" height="100" style="fill: rgb(89, 36, 110);" x="-220"/>
<ellipse style="fill-opacity: 0.2;" cy="92" rx="22" ry="4" cx="-170"/>
<path d="M -153 48 C -153 56 -153 74 -170 74 C -186 74 -187 56 -187 48 C -187 41 -187 34 -174 33 C -173 33 -173 29 -170 29 C -167 29 -167 33 -166 33 C -153 34 -153 41 -153 48 Z" style="fill: rgb(245, 245, 245);"/>
<path d="M -156 48 C -156 55 -156 61 -170 61 C -184 61 -184 55 -184 48 C -184 41 -184 36 -170 36 C -156 36 -156 41 -156 48 Z" style="fill: rgb(44, 56, 95);"/>
<circle style="fill: rgb(117, 152, 255);" cx="-176" cy="45" r="3"/>
<circle style="fill: rgb(117, 152, 255);" cx="-164" cy="45" r="3"/>
<path d="M -176 53 C -176 56 -164 56 -164 53" style="stroke: rgb(117, 152, 255); stroke-width: 3px; fill: none;"/>
<path style="fill: rgb(216, 216, 216);" d="M -181 69 C -180 66 -171 67 -175 73 C -177 73 -180 71 -181 69 Z"/>
<path d="M -183 78 C -185 78 -185 81 -183 81 L -180 87 C -181 87 -181 90 -180 90 L -185 93 C -186 95 -178 96 -178 95 L -176 90 C -175 90 -175 87 -176 87 L -179 81 C -177 81 -177 78 -179 78 L -175 71 C -174 69 -180 68 -180 69 L -183 78 Z" style="fill: rgb(245, 245, 245);"/>
<path style="fill: rgb(216, 216, 216);" d="M -159 69 C -160 66 -169 67 -165 73 C -163 73 -160 71 -159 69 Z"/>
<path d="M -157 78 C -155 78 -155 81 -157 81 L -160 87 C -159 87 -159 90 -160 90 L -155 93 C -154 95 -162 96 -162 95 L -164 90 C -165 90 -165 87 -164 87 L -161 81 C -163 81 -163 78 -161 78 L -165 71 C -166 69 -160 68 -160 69 L -157 78 Z" style="fill: rgb(245, 245, 245);"/>
<circle style="fill: rgb(255, 58, 104);" cy="33" r="1" cx="-170"/>
<rect width="100" height="100" style="fill: rgb(89, 36, 110);" y="-110" x="-220"/>
<ellipse style="fill-opacity: 0.2;" cy="-18" rx="22" ry="4" cx="-170"/>
<path d="M -153 -58 C -153 -50 -151 -35 -170 -35 C -189 -35 -187 -50 -187 -58 C -187 -65 -187 -72 -174 -73 C -173 -73 -173 -77 -170 -77 C -167 -77 -167 -73 -166 -73 C -153 -72 -153 -65 -153 -58 Z" style="fill: rgb(245, 245, 245);"/>
<path d="M -156 -58 C -156 -51 -156 -45 -170 -45 C -184 -45 -184 -51 -184 -58 C -184 -65 -184 -70 -170 -70 C -156 -70 -156 -65 -156 -58 Z" style="fill: rgb(44, 56, 95);"/>
<circle style="fill: rgb(117, 152, 255);" cx="-176" cy="-61" r="3"/>
<circle style="fill: rgb(117, 152, 255);" cx="-164" cy="-61" r="3"/>
<path d="M -176 -53 C -176 -50 -164 -50 -164 -53" style="stroke: rgb(117, 152, 255); stroke-width: 3px; fill: none;"/>
<path style="fill: rgb(216, 216, 216);" d="M -184 -41 C -183 -44 -174 -43 -178 -37 C -180 -37 -183 -39 -184 -41 Z"/>
<path d="M -187 -32 C -189 -32 -189 -29 -187 -29 L -184 -23 C -185 -23 -185 -20 -184 -20 L -189 -17 C -190 -15 -182 -14 -182 -15 L -180 -20 C -179 -20 -179 -23 -180 -23 L -183 -29 C -181 -29 -181 -32 -183 -32 L -178 -39 C -177 -41 -183 -42 -183 -41 L -187 -32 Z" style="fill: rgb(245, 245, 245);"/>
<path style="fill: rgb(216, 216, 216);" d="M -156 -41 C -157 -44 -166 -43 -162 -37 C -160 -37 -157 -39 -156 -41 Z"/>
<path d="M -153 -32 C -151 -32 -151 -29 -153 -29 L -156 -23 C -155 -23 -155 -20 -156 -20 L -151 -17 C -150 -15 -158 -14 -158 -15 L -160 -20 C -161 -20 -161 -23 -160 -23 L -157 -29 C -159 -29 -159 -32 -157 -32 L -162 -39 C -163 -41 -157 -42 -157 -41 L -153 -32 Z" style="fill: rgb(245, 245, 245);"/>
<circle style="fill: rgb(255, 58, 104);" cy="-73" r="1" cx="-170"/>
<rect width="100" height="100" style="fill: rgb(89, 36, 110);" x="-220" y="110"/>
<ellipse style="fill-opacity: 0.2;" cy="202" rx="22" ry="4" cx="-170"/>
<path d="M -149 158 C -149 166 -149 184 -166 184 C -182 184 -183 166 -183 158 C -183 151 -183 144 -170 143 C -169 143 -169 139 -166 139 C -163 139 -163 143 -162 143 C -149 144 -149 151 -149 158 Z" style="fill: rgb(245, 245, 245);"/>
<path d="M -152 158 C -152 165 -152 171 -166 171 C -180 171 -180 165 -180 158 C -180 151 -180 146 -166 146 C -152 146 -152 151 -152 158 Z" style="fill: rgb(44, 56, 95);"/>
<circle style="fill: rgb(117, 152, 255);" cx="-172" cy="155" r="3"/>
<circle style="fill: rgb(117, 152, 255);" cx="-160" cy="155" r="3"/>
<path d="M -172 163 C -172 166 -160 166 -160 163" style="stroke: rgb(117, 152, 255); stroke-width: 3px; fill: none;"/>
<path style="fill: rgb(216, 216, 216);" d="M -177 179 C -176 176 -167 177 -171 183 C -173 183 -176 181 -177 179 Z"/>
<path d="M -181 188 C -183 188 -183 191 -181 191 L -180 197 C -181 197 -181 200 -180 200 L -185 203 C -186 205 -178 206 -178 205 L -176 200 C -175 200 -175 197 -176 197 L -177 191 C -175 191 -175 188 -177 188 L -171 181 C -170 179 -176 178 -176 179 L -181 188 Z" style="fill: rgb(245, 245, 245);"/>
<path style="fill: rgb(216, 216, 216);" d="M -155 179 C -156 176 -165 177 -161 183 C -159 183 -156 181 -155 179 Z"/>
<path d="M -148 186 C -146 186 -146 189 -148 189 L -151 195 C -150 195 -150 198 -151 198 L -146 201 C -145 203 -153 204 -153 203 L -155 198 C -156 198 -156 195 -155 195 L -152 189 C -154 189 -154 186 -152 186 L -156 179 C -157 177 -151 176 -151 177 L -148 186 Z" style="fill: rgb(245, 245, 245);" transform="matrix(0.904559, -0.426349, 0.426349, 0.904559, -95.41914, -46.250379)"/>
<circle style="fill: rgb(255, 58, 104);" cy="143" r="1" cx="-166"/>
<rect width="100" height="100" style="fill: rgb(89, 36, 110);" x="-220" y="220"/>
<ellipse style="fill-opacity: 0.2;" cy="312" rx="22" ry="4" cx="-170"/>
<path d="M -149 268 C -149 276 -149 294 -166 294 C -182 294 -183 276 -183 268 C -183 261 -183 254 -170 253 C -169 253 -169 249 -166 249 C -163 249 -163 253 -162 253 C -149 254 -149 261 -149 268 Z" style="fill: rgb(245, 245, 245);"/>
<path d="M -152 268 C -152 275 -152 281 -166 281 C -180 281 -180 275 -180 268 C -180 261 -180 256 -166 256 C -152 256 -152 261 -152 268 Z" style="fill: rgb(44, 56, 95);"/>
<circle style="fill: rgb(117, 152, 255);" cx="-172" cy="265" r="3"/>
<circle style="fill: rgb(117, 152, 255);" cx="-160" cy="265" r="3"/>
<path d="M -172 273 C -172 276 -160 276 -160 273" style="stroke: rgb(117, 152, 255); stroke-width: 3px; fill: none;"/>
<path style="fill: rgb(216, 216, 216);" d="M -177 289 C -176 286 -167 287 -171 293 C -173 293 -176 291 -177 289 Z"/>
<path style="fill: rgb(216, 216, 216);" d="M -155 289 C -156 286 -165 287 -161 293 C -159 293 -156 291 -155 289 Z"/>
<path d="M -151 298 C -149 298 -149 301 -151 301 L -152 307 C -151 307 -151 310 -152 310 L -147 313 C -146 315 -154 316 -154 315 L -156 310 C -157 310 -157 307 -156 307 L -155 301 C -157 301 -157 298 -155 298 L -161 291 C -162 289 -156 288 -156 289 L -151 298 Z" style="fill: rgb(245, 245, 245);"/>
<path d="M -182 295 C -184 294 -185 297 -183 298 L -183 305 C -184 304 -185 307 -184 307 L -190 308 C -192 309 -185 314 -185 313 L -181 309 C -180 309 -179 307 -180 306 L -180 300 C -178 300 -177 298 -178 297 L -172 292 C -169 290 -175 287 -176 289 L -182 295 Z" style="fill: rgb(245, 245, 245);"/>
<circle style="fill: rgb(255, 58, 104);" cy="253" r="1" cx="-166"/>
<rect width="100" height="100" style="fill: rgb(89, 36, 110);" x="-330" y="110"/>
<ellipse style="fill-opacity: 0.2;" cy="202" rx="22" ry="4" cx="-280"/>
<path d="M -263 154 C -262 162 -259 180 -276 183 C -291 185 -295 168 -296 160 C -297 153 -299 146 -286 143 C -285 143 -285 138 -282 138 C -280 138 -279 142 -278 142 C -265 141 -264 147 -263 154 Z" style="fill: rgb(245, 245, 245);"/>
<path d="M -266 155 C -265 162 -264 168 -278 170 C -292 172 -293 166 -294 159 C -295 152 -296 147 -282 145 C -268 143 -267 148 -266 155 Z" style="fill: rgb(44, 56, 95);"/>
<circle style="fill: rgb(117, 152, 255);" cx="-286" cy="155" r="3"/>
<circle style="fill: rgb(117, 152, 255);" cx="-274" cy="154" r="3"/>
<path d="M -285 163 C -282 166 -274 164 -273 161" style="stroke: rgb(117, 152, 255); stroke-width: 3px; fill: none;"/>
<path style="fill: rgb(216, 216, 216);" d="M -287 180 C -287 176 -278 176 -281 183 C -283 183 -286 181 -287 180 Z"/>
<path style="fill: rgb(216, 216, 216);" d="M -266 176 C -268 174 -276 176 -272 181 C -270 181 -267 179 -266 176 Z"/>
<circle style="fill: rgb(255, 58, 104);" cy="143" r="1" cx="-282"/>
<path d="M -291 188 C -293 188 -293 191 -291 191 L -290 197 C -291 197 -291 200 -290 200 L -295 203 C -296 205 -288 206 -288 205 L -286 200 C -285 200 -285 197 -286 197 L -287 191 C -285 191 -285 188 -287 188 L -281 181 C -280 179 -286 178 -286 179 L -291 188 Z" style="fill: rgb(245, 245, 245);"/>
<path d="M -261 183 C -259 182 -258 185 -260 186 L -260 193 C -259 192 -258 195 -259 195 L -253 196 C -251 197 -258 202 -258 201 L -262 197 C -263 197 -264 195 -263 194 L -263 188 C -265 188 -266 186 -265 185 L -271 180 C -273 179 -268 175 -268 176 L -261 183 Z" style="fill: rgb(245, 245, 245);"/>
<rect width="100" height="100" style="fill: rgb(89, 36, 110);" x="-330" y="220"/>
<ellipse style="fill-opacity: 0.2;" cy="312" rx="22" ry="4" cx="-280"/>
<path d="M -254 272 C -256 279 -260 297 -277 292 C -292 288 -289 270 -287 263 C -285 256 -283 249 -270 252 C -269 252 -268 248 -265 249 C -262 250 -263 253 -262 254 C -250 258 -252 265 -254 272 Z" style="fill: rgb(245, 245, 245);"/>
<path d="M -256 271 C -258 277 -260 283 -273 280 C -287 276 -285 270 -283 263 C -282 257 -280 252 -267 255 C -253 259 -255 264 -256 271 Z" style="fill: rgb(44, 56, 95);"/>
<circle style="fill: rgb(117, 152, 255);" cx="-275" cy="263" r="3"/>
<circle style="fill: rgb(117, 152, 255);" cx="-264" cy="266" r="3"/>
<path d="M -278 270 C -277 274 -270 276 -266 274" style="stroke: rgb(117, 152, 255); stroke-width: 3px; fill: none;"/>
<path style="fill: rgb(216, 216, 216);" d="M -287 284 C -285 281 -276 285 -282 290 C -284 289 -286 286 -287 284 Z"/>
<path style="fill: rgb(216, 216, 216);" d="M -265 290 C -265 287 -274 285 -272 292 C -270 293 -266 292 -265 290 Z"/>
<circle style="fill: rgb(255, 58, 104);" cy="253" r="1" cx="-266"/>
<path d="M -261 298 C -259 298 -259 301 -261 301 L -262 307 C -261 307 -261 310 -262 310 L -257 313 C -256 315 -264 316 -264 315 L -266 310 C -267 310 -267 307 -266 307 L -265 301 C -267 301 -267 298 -265 298 L -271 291 C -272 289 -266 288 -266 289 L -261 298 Z" style="fill: rgb(245, 245, 245);"/>
<path d="M -292 291 C -294 290 -295 293 -293 294 L -293 301 C -294 300 -295 303 -294 303 L -300 304 C -302 305 -295 310 -295 309 L -291 305 C -290 305 -289 303 -290 302 L -290 296 C -288 296 -287 294 -288 293 L -282 288 C -279 286 -285 283 -286 285 L -292 291 Z" style="fill: rgb(245, 245, 245);"/>
<rect width="100" height="100" style="fill: rgb(89, 36, 110);" x="-330" y="330"/>
<ellipse style="fill-opacity: 0.2;" cy="422" rx="22" ry="4" cx="-280"/>
<path d="M -265 372 C -264 380 -261 398 -278 401 C -293 403 -297 386 -298 378 C -299 371 -301 364 -288 361 C -287 361 -287 356 -284 356 C -282 356 -281 360 -280 360 C -267 359 -266 365 -265 372 Z" style="fill: rgb(245, 245, 245);"/>
<path d="M -268 373 C -267 380 -266 386 -280 388 C -294 390 -295 384 -296 377 C -297 370 -298 365 -284 363 C -270 361 -269 366 -268 373 Z" style="fill: rgb(44, 56, 95);"/>
<circle style="fill: rgb(117, 152, 255);" cx="-288" cy="373" r="4"/>
<circle style="fill: rgb(117, 152, 255);" cx="-276" cy="372" r="3"/>
<path d="M -286 382 C -283 378 -279 379 -276 381" style="stroke: rgb(117, 152, 255); stroke-width: 3px; fill: none;"/>
<path style="fill: rgb(216, 216, 216);" d="M -289 398 C -289 394 -280 394 -283 401 C -285 401 -288 399 -289 398 Z"/>
<path style="fill: rgb(216, 216, 216);" d="M -268 394 C -270 392 -278 394 -274 399 C -272 399 -269 397 -268 394 Z"/>
<circle style="fill: rgb(255, 58, 104);" cy="361" r="1" cx="-284"/>
<path d="M -263 401 C -261 400 -260 403 -262 404 L -262 411 C -261 410 -260 413 -261 413 L -255 414 C -253 415 -260 420 -260 419 L -264 415 C -265 415 -266 413 -265 412 L -265 406 C -267 406 -268 404 -267 403 L -273 398 C -275 397 -270 393 -270 394 L -263 401 Z" style="fill: rgb(245, 245, 245);"/>
<path d="M -294 403 C -296 402 -297 405 -295 406 L -295 413 C -296 412 -297 415 -296 415 L -302 416 C -304 417 -297 422 -297 421 L -293 417 C -292 417 -291 415 -292 414 L -292 408 C -290 408 -289 406 -290 405 L -284 400 C -281 398 -287 395 -288 397 L -294 403 Z" style="fill: rgb(245, 245, 245);"/>
<rect width="100" height="100" style="fill: rgb(89, 36, 110);" x="-110" y="330"/>
<ellipse style="fill-opacity: 0.2;" cx="-59" cy="419" rx="36" ry="6"/>
<path d="M -90 407 L -92 398 C -89 395 -73 398 -74 389 C -109 326 -10 327 -45 388 C -51 398 -28 394 -26 395 L -31 405 L -33 400 C -32 396 -51 396 -49 396 C -51 396 -46 418 -43 419 L -41 425 L -49 419 C -47 419 -55 398 -60 398 C -64 398 -71 415 -69 416 L -76 421 L -75 416 C -72 416 -69 396 -70 396 C -69 396 -89 398 -88 401 L -90 407 Z" style="fill: rgb(142, 193, 165);"/>
<circle style="fill: rgb(223, 255, 235);" cy="352" r="8" cx="-60"/>
<path d="M -54 352 C -54 354 -57 356 -60 356 C -63 356 -66 354 -66 352 C -66 350 -63 346 -60 346 C -59 346 -58 346 -57 347 C -56 347 -60 351 -60 352 C -59 352 -55 350 -55 350 C -54 350 -54 351 -54 352 Z" style=""/>
<path d="M -73 366 L -72 382 L -68 389 L -66 384 L -64 390 L -60 383 L -57 388 L -54 384 L -51 388 L -47 380 L -46 364 C -46 360 -73 361 -73 366 Z" style="fill: rgb(86, 118, 100);"/>
<path d="M -73 366 L -69 377 L -68 369 L -66 375 L -62 368 L -60 376 L -57 368 L -53 376 L -52 367 L -48 376 L -46 364 C -46 360 -73 361 -73 366 Z" style="fill: rgb(223, 255, 235);"/>
<rect width="100" height="100" style="fill: rgb(89, 36, 110);" x="-110" y="440"/>
<ellipse style="fill-opacity: 0.2;" cx="-59" cy="529" rx="36" ry="6"/>
<path d="M -87 525 L -89 516 C -86 513 -73 508 -74 499 C -108 443 -11 443 -45 498 C -51 508 -31 512 -29 513 L -33 523 L -36 516 C -35 512 -51 506 -49 506 C -51 506 -47 521 -44 522 L -41 527 L -49 525 C -47 525 -55 508 -60 508 C -64 508 -71 527 -69 528 L -76 533 L -75 528 C -72 528 -69 506 -70 506 C -69 506 -86 516 -85 519 L -87 525 Z" style="fill: rgb(142, 193, 165);"/>
<circle style="fill: rgb(223, 255, 235);" cy="467" r="8" cx="-60"/>
<path d="M -54 467 C -54 469 -57 471 -60 471 C -63 471 -66 469 -66 467 C -66 465 -63 461 -60 461 C -59 461 -58 461 -57 462 C -56 462 -60 466 -60 467 C -59 467 -55 465 -55 465 C -54 465 -54 466 -54 467 Z" style=""/>
<path d="M -73 480 L -72 489 L -68 496 L -66 491 L -64 497 L -60 490 L -57 495 L -54 491 L -51 495 L -46 489 L -46 478 C -46 474 -73 475 -73 480 Z" style="fill: rgb(86, 118, 100);"/>
<path d="M -73 480 L -69 491 L -68 483 L -66 489 L -62 482 L -60 490 L -57 482 L -53 490 L -52 481 L -48 490 L -46 478 C -46 474 -73 475 -73 480 Z" style="fill: rgb(223, 255, 235);"/>
<path style="fill: rgb(175, 70, 216);" d="M 170 622 C 178 621 176 614 181 613 C 177 611 169 616 170 622 Z"/>
<rect y="110" width="100" height="100" style="fill: rgb(89, 36, 110);" x="-440"/>
<path d="M -408 198 C -417 193 -391 194 -391 196 C -390 199 -406 205 -408 198 Z" style="fill: rgb(142, 193, 165);"/>
<path d="M -371 192 C -364 185 -389 193 -388 195 C -388 198 -371 200 -371 192 Z" style="fill: rgb(142, 193, 165);"/>
<path d="M -387 203 C -392 199 -395 191 -392 190 C -389 189 -385 197 -387 203 Z" style="fill: rgb(86, 118, 100);"/>
<rect y="220" width="100" height="100" style="fill: rgb(89, 36, 110);" x="-440"/>
<path d="M -408 304 C -415 296 -390 305 -391 307 C -391 310 -408 311 -408 304 Z" style="fill: rgb(142, 193, 165);"/>
<path d="M -372 298 C -367 289 -389 304 -387 306 C -386 309 -369 305 -372 298 Z" style="fill: rgb(142, 193, 165);"/>
<path d="M -387 313 C -392 309 -395 301 -392 300 C -389 299 -385 307 -387 313 Z" style="fill: rgb(86, 118, 100);"/>
<rect width="100" height="200" style="fill: rgb(89, 36, 110);" y="-210" x="220"/>
<ellipse style="fill-opacity: 0.2;" cx="270" cy="-20" rx="31" ry="5"/>
<path d="M 260 -23 C 242 -95 282 -113 267 -169 C 290 -122 237 -65 281 -23 C 282 -17 261 -15 260 -23 Z" style="fill: rgb(144, 58, 178);"/>
<path style="fill: rgb(175, 70, 216);" d="M 261 -78 C 242 -78 246 -97 231 -99 C 243 -106 264 -92 261 -78 Z" bx:origin="0 1"/>
<path style="fill: rgb(175, 70, 216);" d="M 269 -112 C 280 -108 283 -120 293 -117 C 287 -124 270 -122 269 -112 Z"/>
<path style="fill: rgb(175, 70, 216);" d="M 266 -37 C 277 -41 271 -52 280 -57 C 271 -58 260 -45 266 -37 Z"/>
<path style="fill: rgb(175, 70, 216);" d="M 271 -171 C 253 -169 254 -182 238 -181 C 249 -190 272 -187 271 -171 Z"/>
<path style="fill: rgb(175, 70, 216);" d="M 267 -171 C 282 -161 291 -178 306 -170 C 299 -183 273 -186 267 -171 Z"/>
<path style="fill: rgb(175, 70, 216);" d="M 267 -171 C 264 -152 284 -151 282 -133 C 291 -145 283 -172 267 -171 Z"/>
<path style="fill: rgb(175, 70, 216);" d="M 271 -171 C 267 -154 248 -160 243 -144 C 239 -158 257 -178 271 -171 Z"/>
<rect width="100" height="200" style="fill: rgb(89, 36, 110);" y="-210" x="330"/>
<ellipse style="fill-opacity: 0.2;" cx="386" cy="-20" rx="31" ry="5"/>
<path d="M 380 -24 C 392 -85 324 -121 385 -185 C 341 -121 376 -127 401 -24 C 401 -16 380 -16 380 -24 Z" style="fill: rgb(144, 58, 178);"/>
<path style="fill: rgb(175, 70, 216);" d="M 383 -57 C 370 -49 365 -64 354 -60 C 359 -69 379 -67 383 -57 Z" bx:origin="0 2"/>
<path style="fill: rgb(175, 70, 216);" d="M 384 -67 C 396 -64 398 -77 408 -74 C 402 -81 384 -78 384 -67 Z"/>
<path style="fill: rgb(175, 70, 216);" d="M 385 -188 C 382 -171 353 -177 348 -161 C 341 -176 363 -195 385 -188 Z"/>
<path style="fill: rgb(175, 70, 216);" d="M 385 -188 C 403 -197 374 -208 354 -198 C 365 -199 363 -186 385 -188 Z"/>
<path style="fill: rgb(175, 70, 216);" d="M 385 -188 C 394 -170 408 -185 424 -168 C 424 -190 390 -204 385 -188 Z"/>
<path style="fill: rgb(175, 70, 216);" d="M 385 -188 C 362 -178 404 -151 386 -142 C 406 -143 399 -178 385 -188 Z"/>
<rect y="220" width="100" height="100" style="fill: rgb(89, 36, 110);" x="220"/>
<ellipse style="fill-opacity: 0.2;" cx="269" cy="313" rx="23" ry="3"/>
<ellipse style="fill: rgb(223, 255, 235);" cx="269" cy="296" rx="10" ry="15"/>
<path d="M 259 296 C 260 289 243 279 249 268" style="fill: none; stroke: rgb(192, 220, 203);"/>
<path style="fill: rgb(175, 70, 216);" d="M 268 314 C 249 313 254 294 239 291 C 252 285 272 300 268 314 Z"/>
<path d="M 275 288 C 276 291 276 293 275 294 C 273 295 271 293 270 291 C 269 288 269 286 270 285 C 272 284 274 286 275 288 Z" style="fill: rgb(192, 220, 203);"/>
<path d="M 279 300 C 295 287 284 282 281 271" style="fill: none; stroke: rgb(192, 220, 203);"/>
<path d="M 268 314 C 266 299 293 287 299 297 C 285 295 286 314 268 314 Z" style="fill: rgb(144, 58, 178);"/>
<path d="M 269 282 C 270 275 266 265 272 254" style="fill: none; stroke: rgb(192, 220, 203);"/>
<path d="M 272 254 C 274 253 277 258 277 261 C 275 258 270 256 272 254 Z" style="fill: rgb(223, 255, 235);"/>
<path d="M 272 254 C 271 252 265 255 264 257 C 267 257 273 256 272 254 Z" style="fill: rgb(223, 255, 235);"/>
<path d="M 272 254 C 274 253 270 249 266 249 C 270 251 270 255 272 254 Z" style="fill: rgb(223, 255, 235);"/>
<path d="M 272 254 C 272 251 278 251 281 253 C 277 253 273 256 272 254 Z" style="fill: rgb(223, 255, 235);"/>
<rect y="220" width="100" height="100" style="fill: rgb(89, 36, 110);" x="-550"/>
<ellipse style="fill: rgb(144, 58, 178);" cx="-499" cy="300" rx="31" ry="13"/>
<path d="M -514 289 C -500 295 -489 292 -484 309 C -494 303 -513 302 -514 289 Z" style="fill: rgb(73, 29, 91);"/>
<path d="M -524 305 C -508 301 -500 292 -474 293 C -491 298 -502 308 -524 305 Z" style="fill: rgb(73, 29, 91);"/>
<path d="M -528 296 C -509 299 -493 295 -470 302 C -489 301 -501 308 -528 296 Z" style="fill: rgb(73, 29, 91);"/>
<path d="M -502 311 C -508 301 -498 299 -500 287 C -497 295 -487 301 -502 311 Z" style="fill: rgb(73, 29, 91);"/>
<path d="M -508 299 C -506 274 -479 231 -469 252 L -478 254 L -469 256 C -465 261 -498 254 -490 299 C -492 303 -510 303 -508 299 Z" style="fill: rgb(255, 58, 104);"/>
<rect y="330" width="100" height="100" style="fill: rgb(89, 36, 110);" x="-550"/>
<ellipse style="fill: rgb(144, 58, 178);" cx="-499" cy="410" rx="31" ry="13"/>
<path d="M -514 399 C -506 407 -498 407 -484 419 C -494 413 -504 411 -514 399 Z" style="fill: rgb(73, 29, 91);"/>
<path d="M -524 415 C -507 415 -500 406 -474 403 C -491 408 -502 416 -524 415 Z" style="fill: rgb(73, 29, 91);"/>
<path d="M -528 406 C -510 411 -499 407 -470 412 C -489 411 -501 414 -528 406 Z" style="fill: rgb(73, 29, 91);"/>
<path d="M -502 421 C -500 411 -498 409 -500 397 C -497 405 -495 407 -502 421 Z" style="fill: rgb(73, 29, 91);"/>
<rect y="330" width="100" height="100" style="fill: rgb(89, 36, 110);" x="-660"/>
<ellipse style="fill: rgb(73, 29, 91);" cx="-609" cy="410" rx="31" ry="13"/>
<path d="M -624 399 C -616 407 -608 407 -594 419 C -604 413 -614 411 -624 399 Z" style="fill: rgb(53, 21, 66);"/>
<path d="M -634 415 C -617 415 -610 406 -584 403 C -601 408 -612 416 -634 415 Z" style="fill: rgb(53, 21, 66);"/>
<path d="M -638 406 C -620 411 -609 407 -580 412 C -599 411 -611 414 -638 406 Z" style="fill: rgb(53, 21, 66);"/>
<path d="M -612 421 C -610 411 -608 409 -610 397 C -607 405 -605 407 -612 421 Z" style="fill: rgb(53, 21, 66);"/>
<rect y="220" width="100" height="100" style="fill: rgb(89, 36, 110);" x="-660"/>
<ellipse style="fill: rgb(73, 29, 91);" cx="-609" cy="300" rx="31" ry="13"/>
<path d="M -624 289 C -610 295 -599 292 -594 309 C -604 303 -623 302 -624 289 Z" style="fill: rgb(53, 21, 66);"/>
<path d="M -634 305 C -618 301 -610 292 -584 293 C -601 298 -612 308 -634 305 Z" style="fill: rgb(53, 21, 66);"/>
<path d="M -638 296 C -619 299 -603 295 -580 302 C -599 301 -611 308 -638 296 Z" style="fill: rgb(53, 21, 66);"/>
<path d="M -612 311 C -618 301 -608 299 -610 287 C -607 295 -597 301 -612 311 Z" style="fill: rgb(53, 21, 66);"/>
<path d="M -618 299 C -616 274 -592 238 -578 252 L -585 254 L -579 256 C -575 261 -596 256 -600 299 C -602 303 -620 303 -618 299 Z" style="fill: rgb(255, 58, 104);"/>
<rect y="110" width="100" height="100" style="fill: rgb(89, 36, 110);" x="-550"/>
<ellipse style="fill: rgb(144, 58, 178);" cx="-499" cy="190" rx="31" ry="13"/>
<path d="M -514 179 C -500 185 -489 182 -484 199 C -494 193 -513 192 -514 179 Z" style="fill: rgb(73, 29, 91);"/>
<path d="M -524 195 C -508 191 -500 182 -474 183 C -491 188 -502 198 -524 195 Z" style="fill: rgb(73, 29, 91);"/>
<path d="M -528 186 C -509 189 -493 185 -470 192 C -489 191 -501 198 -528 186 Z" style="fill: rgb(73, 29, 91);"/>
<path d="M -502 201 C -508 191 -498 189 -500 177 C -497 185 -487 191 -502 201 Z" style="fill: rgb(73, 29, 91);"/>
<path d="M -508 189 C -506 164 -457 140 -457 154 L -464 156 L -458 156 C -454 164 -486 146 -490 189 C -492 193 -510 193 -508 189 Z" style="fill: rgb(255, 58, 104);"/>
<rect y="110" width="100" height="100" style="fill: rgb(89, 36, 110);" x="-660"/>
<ellipse style="fill: rgb(73, 29, 91);" cx="-609" cy="190" rx="31" ry="13"/>
<path d="M -624 179 C -610 185 -599 182 -594 199 C -604 193 -623 192 -624 179 Z" style="fill: rgb(53, 21, 66);"/>
<path d="M -634 195 C -618 191 -610 182 -584 183 C -601 188 -612 198 -634 195 Z" style="fill: rgb(53, 21, 66);"/>
<path d="M -638 186 C -619 189 -603 185 -580 192 C -599 191 -611 198 -638 186 Z" style="fill: rgb(53, 21, 66);"/>
<path d="M -612 201 C -618 191 -608 189 -610 177 C -607 185 -597 191 -612 201 Z" style="fill: rgb(53, 21, 66);"/>
<rect y="440" width="100" height="100" style="fill: rgb(89, 36, 110);" x="-550"/>
<ellipse style="fill: rgb(144, 58, 178);" cx="-499" cy="520" rx="31" ry="13"/>
<path d="M -500 507 C -498 512 -497 515 -497 518 C -491 516 -484 514 -474 513 C -480 515 -488 517 -493 519 C -487 520 -478 521 -470 522 C -478 521 -485 522 -493 522 C -491 524 -487 526 -484 529 C -489 526 -493 524 -498 522 C -499 524 -500 527 -502 531 C -501 528 -500 525 -500 522 C -507 524 -514 525 -524 525 C -516 525 -511 523 -504 521 C -509 520 -516 519 -524 516 C -515 517 -510 519 -503 519 C -507 517 -510 513 -514 509 C -509 514 -505 516 -499 519 C -499 516 -499 513 -500 507 Z" style="fill: rgb(73, 29, 91);"/>
<ellipse style="fill-opacity: 0.2;" cx="160" cy="421" rx="29" ry="4"/>
<path d="M 142 421 C 153 401 137 386 135 370 L 147 390 L 138 363 L 148 380 L 144 357 L 150 375 L 148 354 L 154 377 L 154 352 L 160 375 L 160 352 L 164 379 L 167 353 L 168 372 L 174 357 L 170 385 L 177 366 L 172 390 L 183 372 C 178 394 165 405 177 421 C 172 423 144 424 142 421 Z" style="fill: rgb(144, 58, 178);"/>
<rect y="660" width="100" height="100" style="fill: rgb(89, 36, 110);" x="110"/>
<ellipse style="fill-opacity: 0.2;" cx="160" cy="751" rx="29" ry="4"/>
<path d="M 146 750 C 155 730 143 746 142 729 C 134 727 141 714 146 721 C 143 718 148 705 155 712 C 153 709 165 702 170 711 C 173 702 187 710 181 719 C 183 718 189 727 180 730 C 185 739 170 737 175 750 C 169 753 147 753 146 750 Z" style="fill: rgb(144, 58, 178);"/>
<g/>
<g/>
<g/>
<rect y="660" width="100" height="100" style="fill: rgb(89, 36, 110);" x="220"/>
<ellipse style="fill-opacity: 0.2;" cx="269" cy="753" rx="11" ry="3"/>
<path d="M 258 726 C 252 719 254 681 277 698" style="fill: none; stroke: rgb(192, 220, 203);"/>
<path d="M 264 723 C 276 723 278 753 264 753 C 250 753 252 723 264 723 Z" style="fill: rgb(223, 255, 235);" transform="matrix(0.93742, -0.348202, 0.348202, 0.93742, -240.451674, 138.109586)"/>
<path style="fill: rgb(175, 70, 216);" d="M 258 726 C 248 725 251 716 244 715 C 250 712 260 719 258 726 Z"/>
<path d="M 262 727 C 264 724 271 731 269 734 C 267 737 260 730 262 727 Z" style="fill: rgb(192, 220, 203);"/>
<path d="M 277 698 C 279 697 282 702 282 705 C 280 702 275 700 277 698 Z" style="fill: rgb(223, 255, 235);"/>
<path d="M 277 698 C 276 696 270 699 269 701 C 272 701 278 700 277 698 Z" style="fill: rgb(223, 255, 235);"/>
<path d="M 276 698 C 275 696 280 694 283 694 C 280 696 278 701 276 698 Z" style="fill: rgb(223, 255, 235);"/>
<rect width="100" height="100" style="fill: rgb(89, 36, 110);" x="-880"/>
<path d="M -813 55 C -813 63 -813 73 -830 73 C -846 73 -847 63 -847 55 C -847 47 -847 40 -830 40 C -813 40 -813 47 -813 55 Z" style="fill: rgb(245, 245, 245);"/>
<path d="M -816 55 C -816 62 -816 68 -830 68 C -844 68 -844 62 -844 55 C -844 48 -844 43 -830 43 C -816 43 -816 48 -816 55 Z" style="fill: rgb(44, 56, 95);"/>
<circle style="fill: rgb(117, 152, 255);" cx="-836" cy="52" r="3"/>
<circle style="fill: rgb(117, 152, 255);" cx="-824" cy="52" r="3"/>
<path d="M -836 60 C -836 63 -824 63 -824 60" style="stroke: rgb(117, 152, 255); stroke-width: 3px; fill: none;"/>
<ellipse style="fill-opacity: 0.2;" cy="92" rx="22" ry="4" cx="-830"/>
<path d="M -843 78 C -845 78 -845 81 -843 81 L -840 87 C -841 87 -841 90 -840 90 L -845 93 C -846 95 -838 96 -838 95 L -836 90 C -835 90 -835 87 -836 87 L -839 81 C -837 81 -837 78 -839 78 L -835 71 C -834 69 -840 68 -840 69 L -843 78 Z" style="fill: rgb(245, 245, 245);"/>
<path d="M -817 78 C -815 78 -815 81 -817 81 L -820 87 C -819 87 -819 90 -820 90 L -815 93 C -814 95 -822 96 -822 95 L -824 90 C -825 90 -825 87 -824 87 L -821 81 C -823 81 -823 78 -821 78 L -825 71 C -826 69 -820 68 -820 69 L -817 78 Z" style="fill: rgb(245, 245, 245);"/>
<rect width="100" height="100" style="fill: rgb(89, 36, 110);" y="110"/>
<g transform="matrix(1, 0, 0, 1, 0, 110)">
<g>
<ellipse style="fill-opacity: 0.2;" cy="92" rx="22" ry="4" cx="50"/>
<path d="M 33 71 C 30 71 30 75 33 75 L 37 83 C 35 83 35 87 37 87 L 30 91 C 29 93 39 95 39 93 L 42 87 C 43 87 43 83 42 83 L 38 75 C 41 75 41 71 38 71 L 43 61 C 45 59 37 57 37 59 L 33 71 Z" style="fill: rgb(245, 245, 245);"/>
<path d="M 67 71 C 70 71 70 75 67 75 L 63 83 C 65 83 65 87 63 87 L 70 91 C 71 93 61 95 61 93 L 58 87 C 57 87 57 83 58 83 L 62 75 C 59 75 59 71 62 71 L 57 61 C 55 59 63 57 63 59 L 67 71 Z" style="fill: rgb(245, 245, 245);"/>
<path d="M 74 38 C 74 49 74 63 50 63 C 27 63 26 49 26 38 C 26 27 26 18 50 18 C 74 18 74 27 74 38 Z" style="fill: rgb(245, 245, 245);"/>
<path d="M 70 38 C 70 48 70 56 50 56 C 30 56 30 48 30 38 C 30 29 30 21 50 21 C 70 21 70 29 70 38 Z" style="fill: rgb(44, 56, 95);"/>
<circle style="fill: rgb(117, 152, 255);" cx="41" cy="34" r="4"/>
<circle style="fill: rgb(117, 152, 255);" cx="58" cy="34" r="4"/>
<path d="M 41 45 C 41 49 59 49 59 45" style="stroke: rgb(117, 152, 255); stroke-width: 3px; fill: none;"/>
</g>
</g>
<rect y="550" width="200" height="100" style="fill: rgb(89, 36, 110);" x="-550"/>
<ellipse style="fill: rgb(73, 29, 91);" cx="-449" cy="630" rx="31" ry="13"/>
<path d="M -464 619 C -456 627 -448 627 -434 639 C -444 633 -454 631 -464 619 Z" style="fill: rgb(53, 21, 66);"/>
<path d="M -474 635 C -457 635 -450 626 -424 623 C -441 628 -452 636 -474 635 Z" style="fill: rgb(53, 21, 66);"/>
<path d="M -478 626 C -460 631 -449 627 -420 632 C -439 631 -451 634 -478 626 Z" style="fill: rgb(53, 21, 66);"/>
<path d="M -452 641 C -450 631 -448 629 -450 617 C -447 625 -445 627 -452 641 Z" style="fill: rgb(53, 21, 66);"/>
<path d="M -458 629 C -448 589 -389 580 -389 594 L -396 596 L -390 596 C -386 604 -436 586 -440 629 C -442 633 -460 633 -458 629 Z" style="fill: rgb(255, 58, 104);"/>
<rect width="100" height="100" style="fill: rgb(89, 36, 110);" y="220"/>
<ellipse style="fill-opacity: 0.2;" cy="312" rx="22" ry="4" cx="50"/>
<path d="M 39 286 C 36 287 38 290 41 289 L 48 294 C 47 295 49 298 50 297 L 46 304 C 47 307 56 303 55 301 L 55 295 C 56 294 54 291 53 291 L 45 286 C 48 285 46 281 43 283 L 43 272 C 43 269 35 271 36 273 L 39 286 Z" style="fill: rgb(245, 245, 245);"/>
<path d="M 64 293 C 67 294 66 298 63 297 L 57 304 C 59 304 58 308 56 307 L 62 313 C 62 315 52 315 52 313 L 51 306 C 50 306 51 302 52 302 L 58 296 C 55 295 57 291 59 292 L 57 281 C 56 278 64 279 64 281 L 64 293 Z" style="fill: rgb(245, 245, 245);"/>
<path d="M 78 261 C 75 272 72 285 48 279 C 26 274 29 260 31 249 C 34 238 36 230 60 236 C 83 242 81 250 78 261 Z" style="fill: rgb(245, 245, 245);"/>
<path d="M 73 260 C 71 270 69 277 50 272 C 30 267 32 260 35 250 C 37 241 39 234 58 239 C 78 244 76 251 73 260 Z" style="fill: rgb(44, 56, 95);"/>
<circle style="fill: rgb(117, 152, 255);" cx="47" cy="249" r="4"/>
<circle style="fill: rgb(117, 152, 255);" cx="63" cy="253" r="4"/>
<path d="M 45 260 C 44 264 61 268 62 264" style="stroke: rgb(117, 152, 255); stroke-width: 3px; fill: none;"/>
<rect width="100" height="100" style="fill: rgb(89, 36, 110);" y="330"/>
<ellipse style="fill-opacity: 0.2;" cy="422" rx="22" ry="4" cx="50"/>
<path d="M 35 403 C 32 403 33 407 36 407 L 41 414 C 39 414 40 418 42 418 L 36 423 C 36 425 46 425 45 423 L 47 417 C 48 416 47 413 46 413 L 41 406 C 44 405 43 401 40 402 L 43 391 C 44 389 36 388 36 390 L 35 403 Z" style="fill: rgb(245, 245, 245);"/>
<path d="M 75 392 C 78 391 79 395 76 396 L 76 405 C 77 404 79 408 77 408 L 85 409 C 87 411 78 417 77 415 L 72 410 C 72 411 70 407 71 406 L 72 398 C 69 399 67 395 70 394 L 62 386 C 59 385 66 380 67 382 L 75 392 Z" style="fill: rgb(245, 245, 245);"/>
<path d="M 71 362 C 73 373 77 386 54 392 C 31 398 27 385 24 374 C 21 364 19 355 42 349 C 66 343 68 351 71 362 Z" style="fill: rgb(245, 245, 245);"/>
<path d="M 66 363 C 69 373 71 380 51 385 C 32 390 30 383 28 373 C 25 364 23 357 43 352 C 62 347 64 354 66 363 Z" style="fill: rgb(44, 56, 95);"/>
<circle style="fill: rgb(117, 152, 255);" cx="38" cy="366" r="4"/>
<circle style="fill: rgb(117, 152, 255);" cx="54" cy="362" r="4"/>
<path d="M 41 377 C 42 381 59 377 58 373" style="stroke: rgb(117, 152, 255); stroke-width: 3px; fill: none;"/>
<rect width="100" height="100" style="fill: rgb(89, 36, 110);" y="440"/>
<ellipse style="fill-opacity: 0.2;" cy="532" rx="22" ry="4" cx="50"/>
<path d="M 68 509 C 71 510 71 514 68 514 L 64 522 C 66 521 66 526 64 525 L 72 529 C 72 531 63 534 62 532 L 59 526 C 58 526 58 522 59 522 L 63 514 C 60 514 60 510 63 510 L 57 500 C 56 497 63 496 64 498 L 68 509 Z" style="fill: rgb(245, 245, 245);"/>
<path d="M 78 481 C 75 492 72 505 48 499 C 26 494 29 480 31 469 C 34 458 36 450 60 456 C 83 462 81 470 78 481 Z" style="fill: rgb(245, 245, 245);"/>
<path d="M 73 480 C 71 490 69 497 50 492 C 30 487 32 480 35 470 C 37 461 39 454 58 459 C 78 464 76 471 73 480 Z" style="fill: rgb(44, 56, 95);"/>
<circle style="fill: rgb(117, 152, 255);" cx="47" cy="469" r="5"/>
<circle style="fill: rgb(117, 152, 255);" cx="63" cy="473" r="4"/>
<path d="M 44 482 C 51 475 60 483 60 486" style="stroke: rgb(117, 152, 255); stroke-width: 3px; fill: none;"/>
<path d="M 26 502 C 23 501 22 505 25 506 L 25 515 C 24 514 22 518 24 518 L 16 519 C 14 521 23 527 24 525 L 29 520 C 29 521 31 517 30 516 L 29 508 C 32 509 34 505 31 504 L 39 496 C 42 495 35 490 34 492 L 26 502 Z" style="fill: rgb(245, 245, 245);"/>
<rect width="100" height="100" style="fill: rgb(89, 36, 110);" x="440"/>
<path d="M 490 100 L 540 50 L 540 100 L 490 100 Z" style="fill: rgb(223, 255, 235);"/>
<rect width="100" height="100" style="fill: rgb(89, 36, 110);" x="550"/>
<path d="M 600 100 C 600 80 630 50 650 50 L 650 100 L 600 100 Z" style="fill: rgb(223, 255, 235);"/>
<rect width="100" height="100" style="fill: rgb(89, 36, 110);" x="770"/>
<path d="M 870 25 L 870 75 L 770 75 L 770 25 L 870 25 Z" style="fill: rgb(223, 255, 235);"/>
<rect width="100" height="100" style="fill: rgb(89, 36, 110);" x="660"/>
<path d="M 760 25 L 760 75 L 735 100 L 685 100 L 760 25 Z" style="fill: rgb(223, 255, 235);"/>
<rect width="100" height="100" style="fill: rgb(89, 36, 110);" x="660" y="110"/>
<path d="M 685 110 L 735 110 L 735 210 L 685 210 L 685 110 Z" style="fill: rgb(223, 255, 235);"/>
<rect width="100" height="100" style="fill: rgb(89, 36, 110);" x="440" y="110"/>
<rect width="100" height="100" style="fill: rgb(89, 36, 110);" x="550" y="110"/>
<rect width="50" height="100" style="fill: rgb(223, 255, 235);" x="600" y="110"/>
<rect width="50" height="100" style="fill: rgb(223, 255, 235);" x="490" y="110"/>
</svg>